Hack-Regular.ufo
<glyph name="parenright" format="1">
  <advance width="1233"/>
  <unicode hex="0029"/>
  <outline>
    <contour>
      <point x="478" y="-270" type="line" name="av01"/>
      <point x="566" y="-116"/>
      <point x="632" y="37" name="dh01"/>
      <point x="677" y="189" type="curve"/>
      <point x="718" y="332" name="at01"/>
      <point x="742" y="487"/>
      <point x="742" y="643" type="curve" smooth="yes"/>
      <point x="742" y="792" name="dh02"/>
      <point x="720" y="949"/>
      <point x="677" y="1098" type="curve" smooth="yes" name="av02"/>
      <point x="636" y="1241"/>
      <point x="570" y="1395"/>
      <point x="478" y="1554" type="curve" name="sh01"/>
      <point x="638" y="1554" type="line"/>
      <point x="740" y="1396"/>
      <point x="815" y="1242"/>
      <point x="863" y="1092" type="curve" smooth="yes"/>
      <point x="912" y="940"/>
      <point x="937" y="790"/>
      <point x="937" y="643" type="curve" smooth="yes"/>
      <point x="937" y="494"/>
      <point x="912" y="344"/>
      <point x="863" y="192" type="curve" smooth="yes"/>
      <point x="814" y="41"/>
      <point x="739" y="-113"/>
      <point x="638" y="-270" type="curve"/>
    </contour>
  </outline>
</glyph>
<glyph name="period" format="1">
  <advance width="1233"/>
  <unicode hex="002E"/>
  <outline>
    <contour>
      <point x="613" y="-27" type="curve" smooth="yes" name="ab01"/>
      <point x="568" y="-27"/>
      <point x="529" y="-11" name="dh01"/>
      <point x="498" y="20" type="curve" smooth="yes"/>
      <point x="467" y="51" name="sv01"/>
      <point x="451" y="92"/>
      <point x="451" y="142" type="curve" smooth="yes" name="dh02"/>
      <point x="451" y="192"/>
      <point x="467" y="233"/>
      <point x="498" y="264" type="curve" smooth="yes"/>
      <point x="529" y="295"/>
      <point x="568" y="311"/>
      <point x="613" y="311" type="curve" smooth="yes"/>
      <point x="658" y="311"/>
      <point x="697" y="295"/>
      <point x="728" y="264" type="curve" smooth="yes"/>
      <point x="759" y="233"/>
      <point x="775" y="192"/>
      <point x="775" y="142" type="curve" smooth="yes"/>
      <point x="775" y="92"/>
      <point x="759" y="51"/>
      <point x="728" y="20" type="curve" smooth="yes"/>
      <point x="697" y="-11"/>
      <point x="658" y="-27"/>
    </contour>
  </outline>
</glyph>
<glyph name="V" format="1">
  <advance width="1233"/>
  <unicode hex="0056"/>
  <outline>
    <contour>
      <point x="57" y="1493" type="line" name="at01"/>
      <point x="266" y="1493" type="line"/>
      <point x="616" y="170" type="line" name="iv01"/>
      <point x="967" y="1493" type="line" name="at02"/>
      <point x="1176" y="1493" type="line"/>
      <point x="739" y="0" type="line" name="ab01"/>
      <point x="494" y="0" type="line"/>
    </contour>
  </outline>
</glyph>
<glyph name="s" format="1">
  <advance width="1233"/>
  <unicode hex="0073"/>
  <outline>
    <contour>
      <point x="590" y="-29" type="curve" smooth="yes" name="dv01"/>
      <point x="531" y="-29" name="sh03"/>
      <point x="467" y="-23" name="sh04"/>
      <point x="410" y="-12" type="curve" smooth="yes"/>
      <point x="358" y="-1" name="sh05"/>
      <point x="284" y="18" name="dv02"/>
      <point x="213" y="41" type="curve"/>
      <point x="213" y="231" type="line" name="ah02"/>
      <point x="298" y="188"/>
      <point x="353" y="168"/>
      <point x="410" y="152" type="curve" smooth="yes"/>
      <point x="471" y="135"/>
      <point x="527" y="125" name="sh01"/>
      <point x="588" y="125" type="curve" smooth="yes"/>
      <point x="669" y="125" name="dv04"/>
      <point x="732" y="142"/>
      <point x="777" y="175" type="curve" smooth="yes"/>
      <point x="824" y="210" name="ih01"/>
      <point x="844" y="259"/>
      <point x="844" y="307" type="curve" smooth="yes" name="dv03"/>
      <point x="844" y="400"/>
      <point x="768" y="455" name="sh02"/>
      <point x="599" y="490" type="curve" smooth="yes"/>
      <point x="591" y="492" type="line"/>
      <point x="522" y="506" type="line" smooth="yes"/>
      <point x="422" y="526"/>
      <point x="343" y="558" name="sh06"/>
      <point x="290" y="611" type="curve" smooth="yes"/>
      <point x="241" y="660"/>
      <point x="217" y="727" name="ah01"/>
      <point x="217" y="812" type="curve" smooth="yes" name="sh07"/>
      <point x="217" y="920"/>
      <point x="254" y="1003"/>
      <point x="326" y="1060" type="curve" smooth="yes"/>
      <point x="402" y="1121"/>
      <point x="508" y="1147"/>
      <point x="639" y="1147" type="curve" smooth="yes"/>
      <point x="696" y="1147"/>
      <point x="754" y="1142"/>
      <point x="810" y="1131" type="curve" smooth="yes"/>
      <point x="861" y="1120"/>
      <point x="917" y="1104"/>
      <point x="973" y="1081" type="curve"/>
      <point x="973" y="901" type="line"/>
      <point x="920" y="932"/>
      <point x="867" y="955"/>
      <point x="814" y="970" type="curve" smooth="yes"/>
      <point x="761" y="985"/>
      <point x="708" y="993"/>
      <point x="647" y="993" type="curve" smooth="yes"/>
      <point x="570" y="993"/>
      <point x="506" y="980"/>
      <point x="465" y="953" type="curve" smooth="yes"/>
      <point x="424" y="926"/>
      <point x="403" y="884"/>
      <point x="403" y="828" type="curve" smooth="yes"/>
      <point x="403" y="781"/>
      <point x="418" y="741"/>
      <point x="449" y="717" type="curve" smooth="yes"/>
      <point x="480" y="693"/>
      <point x="546" y="670"/>
      <point x="678" y="645" type="curve" smooth="yes"/>
      <point x="752" y="631" type="line" smooth="yes"/>
      <point x="848" y="612"/>
      <point x="915" y="578"/>
      <point x="960" y="527" type="curve"/>
      <point x="1007" y="476"/>
      <point x="1030" y="408"/>
      <point x="1030" y="323" type="curve" smooth="yes"/>
      <point x="1030" y="208"/>
      <point x="988" y="125"/>
      <point x="912" y="65" type="curve" smooth="yes"/>
      <point x="831" y="1"/>
      <point x="721" y="-29"/>
    </contour>
  </outline>
</glyph>
<glyph name="y" format="1">
  <advance width="1233"/>
  <unicode hex="0079"/>
  <outline>
    <contour>
      <point x="184" y="-272" type="line" name="sv01"/>
      <point x="293" y="-272" type="line" smooth="yes"/>
      <point x="353" y="-272"/>
      <point x="393" y="-252"/>
      <point x="420" y="-225" type="curve" smooth="yes" name="at01"/>
      <point x="449" y="-194"/>
      <point x="485" y="-126" name="iv01"/>
      <point x="537" y="18" type="curve" name="at02"/>
      <point x="104" y="1120" type="line"/>
      <point x="299" y="1120" type="line"/>
      <point x="631" y="244" type="line"/>
      <point x="958" y="1120" type="line"/>
      <point x="1153" y="1120" type="line"/>
      <point x="858" y="360" type="line" smooth="yes" name="ab01"/>
      <point x="763" y="114"/>
      <point x="805" y="229"/>
      <point x="741" y="52" type="curve"/>
      <point x="661" y="-163"/>
      <point x="627" y="-233"/>
      <point x="608" y="-268" type="curve" smooth="yes"/>
      <point x="579" y="-319"/>
      <point x="545" y="-358"/>
      <point x="493" y="-387" type="curve" smooth="yes"/>
      <point x="447" y="-413"/>
      <point x="393" y="-426"/>
      <point x="332" y="-426" type="curve" smooth="yes"/>
      <point x="184" y="-426" type="line"/>
    </contour>
  </outline>
</glyph>
<glyph name="section" format="1">
  <advance width="1233"/>
  <unicode hex="00A7"/>
  <outline>
    <contour>
      <point x="595" y="-195" type="curve" smooth="yes" name="dv01"/>
      <point x="543" y="-195"/>
      <point x="487" y="-189"/>
      <point x="444" y="-181" type="curve" smooth="yes" name="ih01"/>
      <point x="396" y="-172"/>
      <point x="338" y="-156" name="dv02"/>
      <point x="279" y="-137" type="curve"/>
      <point x="279" y="27" type="line" name="dh03"/>
      <point x="338" y="0"/>
      <point x="392" y="-19"/>
      <point x="440" y="-32" type="curve" smooth="yes"/>
      <point x="488" y="-45" name="dh01"/>
      <point x="532" y="-51"/>
      <point x="573" y="-51" type="curve" smooth="yes" name="ih03"/>
      <point x="640" y="-51"/>
      <point x="693" y="-37" name="ih02"/>
      <point x="730" y="-9" type="curve" smooth="yes"/>
      <point x="767" y="19" name="at01"/>
      <point x="786" y="60" name="at02"/>
      <point x="786" y="103" type="curve" smooth="yes"/>
      <point x="786" y="183" name="ih04"/>
      <point x="718" y="245"/>
      <point x="565" y="334" type="curve" smooth="yes" name="sv01"/>
      <point x="541" y="348" type="line" smooth="yes"/>
      <point x="408" y="425" name="sh01"/>
      <point x="319" y="480"/>
      <point x="263" y="545" type="curve" smooth="yes"/>
      <point x="220" y="596"/>
      <point x="199" y="655" name="sh02"/>
      <point x="199" y="724" type="curve" smooth="yes" name="hr01"/>
      <point x="199" y="783" name="ih06"/>
      <point x="215" y="837"/>
      <point x="246" y="886" type="curve" smooth="yes" name="dh04"/>
      <point x="277" y="933"/>
      <point x="322" y="973"/>
      <point x="383" y="1006" type="curve"/>
      <point x="343" y="1035"/>
      <point x="313" y="1068" name="ih05"/>
      <point x="294" y="1106" type="curve" smooth="yes"/>
      <point x="274" y="1144"/>
      <point x="264" y="1185"/>
      <point x="264" y="1230" type="curve" smooth="yes" name="dh02"/>
      <point x="264" y="1318"/>
      <point x="299" y="1391"/>
      <point x="364" y="1442" type="curve" smooth="yes"/>
      <point x="433" y="1497" name="sh03"/>
      <point x="529" y="1520"/>
      <point x="629" y="1520" type="curve" smooth="yes"/>
      <point x="680" y="1520"/>
      <point x="737" y="1514"/>
      <point x="780" y="1506" type="curve" smooth="yes"/>
      <point x="827" y="1497"/>
      <point x="883" y="1481"/>
      <point x="936" y="1462" type="curve"/>
      <point x="936" y="1298" type="line"/>
      <point x="880" y="1325"/>
      <point x="829" y="1344"/>
      <point x="782" y="1357" type="curve" smooth="yes"/>
      <point x="735" y="1370"/>
      <point x="692" y="1376"/>
      <point x="651" y="1376" type="curve" smooth="yes"/>
      <point x="583" y="1376"/>
      <point x="536" y="1361"/>
      <point x="503" y="1336" type="curve" smooth="yes"/>
      <point x="467" y="1309"/>
      <point x="449" y="1268"/>
      <point x="449" y="1232" type="curve" smooth="yes"/>
      <point x="449" y="1167"/>
      <point x="508" y="1103"/>
      <point x="653" y="1020" type="curve" smooth="yes"/>
      <point x="694" y="997" type="line" smooth="yes"/>
      <point x="854" y="909"/>
      <point x="928" y="851"/>
      <point x="970" y="801" type="curve" smooth="yes"/>
      <point x="1014" y="750"/>
      <point x="1036" y="694"/>
      <point x="1036" y="622" type="curve" smooth="yes"/>
      <point x="1036" y="563"/>
      <point x="1021" y="510"/>
      <point x="991" y="463" type="curve" smooth="yes"/>
      <point x="960" y="416"/>
      <point x="914" y="375"/>
      <point x="852" y="340" type="curve"/>
      <point x="893" y="305"/>
      <point x="923" y="269"/>
      <point x="942" y="234" type="curve" smooth="yes"/>
      <point x="961" y="199"/>
      <point x="971" y="162"/>
      <point x="971" y="111" type="curve" smooth="yes" name="hr03"/>
      <point x="971" y="22"/>
      <point x="937" y="-55"/>
      <point x="869" y="-111" type="curve" smooth="yes"/>
      <point x="801" y="-167"/>
      <point x="710" y="-195"/>
    </contour>
    <contour>
      <point x="750" y="410" type="curve"/>
      <point x="791" y="441"/>
      <point x="822" y="471"/>
      <point x="842" y="500" type="curve" smooth="yes"/>
      <point x="862" y="530"/>
      <point x="872" y="561"/>
      <point x="872" y="592" type="curve" smooth="yes"/>
      <point x="872" y="647"/>
      <point x="844" y="697"/>
      <point x="801" y="736" type="curve" smooth="yes"/>
      <point x="752" y="782"/>
      <point x="646" y="849"/>
      <point x="485" y="936" type="curve"/>
      <point x="442" y="904"/>
      <point x="414" y="877"/>
      <point x="393" y="846" type="curve" smooth="yes"/>
      <point x="374" y="818"/>
      <point x="362" y="790"/>
      <point x="362" y="753" type="curve" smooth="yes"/>
      <point x="362" y="701"/>
      <point x="386" y="656"/>
      <point x="434" y="611" type="curve" smooth="yes"/>
      <point x="486" y="562"/>
      <point x="571" y="506"/>
    </contour>
  </outline>
</glyph>
<glyph name="paragraph" format="1">
  <advance width="1233"/>
  <unicode hex="00B6"/>
  <outline>
    <contour>
      <point x="557" y="649" type="line" name="sh01"/>
      <point x="414" y="660"/>
      <point x="303" y="702"/>
      <point x="224" y="777" type="curve" smooth="yes"/>
      <point x="148" y="849" name="at01"/>
      <point x="106" y="942"/>
      <point x="106" y="1070" type="curve" smooth="yes" name="sh02"/>
      <point x="106" y="1197" name="ah02"/>
      <point x="150" y="1300" name="sv01"/>
      <point x="237" y="1377" type="curve" smooth="yes" name="sh03"/>
      <point x="324" y="1454" name="av01"/>
      <point x="439" y="1493"/>
      <point x="582" y="1493" type="curve" smooth="yes" name="ah01"/>
      <point x="1030" y="1493" type="line" name="sh04"/>
      <point x="1030" y="-197" type="line"/>
      <point x="889" y="-197" type="line"/>
      <point x="889" y="1370" type="line"/>
      <point x="698" y="1370" type="line"/>
      <point x="698" y="-197" type="line"/>
      <point x="557" y="-197" type="line"/>
    </contour>
  </outline>
</glyph>
<glyph name="onequarter" format="1">
  <advance width="1233"/>
  <unicode hex="00BC"/>
  <outline>
    <contour>
      <point x="104" y="934" type="line" name="sv01"/>
      <point x="309" y="934" type="line" name="sh01"/>
      <point x="309" y="1545" type="line"/>
      <point x="86" y="1504" type="line"/>
      <point x="86" y="1620" type="line" name="dh01"/>
      <point x="315" y="1659" type="line" name="av01"/>
      <point x="453" y="1659" type="line" name="dh02"/>
      <point x="453" y="934" type="line" name="sh03"/>
      <point x="657" y="934" type="line" name="dv02"/>
      <point x="657" y="824" type="line" name="dv01"/>
      <point x="104" y="824" type="line"/>
    </contour>
    <contour>
      <point x="27" y="612" type="line"/>
      <point x="1087" y="874" type="line"/>
      <point x="1114" y="766" type="line"/>
      <point x="51" y="504" type="line"/>
    </contour>
    <contour>
      <point x="839" y="-84" type="line" name="dh03"/>
      <point x="452" y="-84" type="line" name="sh02"/>
      <point x="452" y="37" type="line" name="sh04"/>
      <point x="815" y="565" type="line"/>
      <point x="977" y="565" type="line" name="sh05"/>
      <point x="977" y="27" type="line" name="sv02"/>
      <point x="1093" y="27" type="line"/>
      <point x="1093" y="-84" type="line" name="sv03"/>
      <point x="977" y="-84" type="line" name="dh04"/>
      <point x="977" y="-270" type="line" name="av02"/>
      <point x="839" y="-270" type="line"/>
    </contour>
    <contour>
      <point x="839" y="27" type="line" name="sh06"/>
      <point x="839" y="440" type="line" name="ih01"/>
      <point x="565" y="27" type="line" name="ih02"/>
    </contour>
  </outline>
</glyph>
<glyph name="Atilde" format="1">
  <advance width="1233"/>
  <unicode hex="00C3"/>
  <outline>
    <contour>
      <point x="287" y="1587" type="line" name="hr00"/>
      <point x="287" y="1651"/>
      <point x="302" y="1704" name="dv02"/>
      <point x="339" y="1747" type="curve" smooth="yes"/>
      <point x="373" y="1786"/>
      <point x="419" y="1806"/>
      <point x="476" y="1806" type="curve" smooth="yes"/>
      <point x="497" y="1806"/>
      <point x="519" y="1803"/>
      <point x="542" y="1798" type="curve" smooth="yes"/>
      <point x="562" y="1793" name="sv01"/>
      <point x="586" y="1782"/>
      <point x="621" y="1763" type="curve" smooth="yes"/>
      <point x="678" y="1733" type="line" name="sv02"/>
      <point x="692" y="1724"/>
      <point x="705" y="1718"/>
      <point x="718" y="1714" type="curve" smooth="yes"/>
      <point x="729" y="1710"/>
      <point x="739" y="1708"/>
      <point x="750" y="1708" type="curve" smooth="yes"/>
      <point x="771" y="1708"/>
      <point x="788" y="1717" name="dv01"/>
      <point x="801" y="1734" type="curve" smooth="yes" name="at01"/>
      <point x="814" y="1751"/>
      <point x="821" y="1773" name="ab01"/>
      <point x="821" y="1800" type="curve" smooth="yes"/>
      <point x="821" y="1806" type="line" name="dv03"/>
      <point x="946" y="1806" type="line"/>
      <point x="945" y="1740" name="ab02"/>
      <point x="928" y="1687"/>
      <point x="893" y="1647" type="curve" smooth="yes" name="dv04"/>
      <point x="859" y="1607"/>
      <point x="814" y="1587"/>
      <point x="757" y="1587" type="curve" smooth="yes"/>
      <point x="736" y="1587"/>
      <point x="715" y="1590"/>
      <point x="694" y="1595" type="curve" smooth="yes"/>
      <point x="675" y="1600"/>
      <point x="653" y="1609"/>
      <point x="612" y="1630" type="curve"/>
      <point x="555" y="1663" type="line" smooth="yes"/>
      <point x="540" y="1672"/>
      <point x="526" y="1678"/>
      <point x="514" y="1683" type="curve" smooth="yes"/>
      <point x="503" y="1687"/>
      <point x="492" y="1688"/>
      <point x="485" y="1688" type="curve" smooth="yes"/>
      <point x="465" y="1688"/>
      <point x="445" y="1680"/>
      <point x="432" y="1663" type="curve" smooth="yes"/>
      <point x="419" y="1646"/>
      <point x="412" y="1622"/>
      <point x="412" y="1593" type="curve" smooth="yes"/>
      <point x="412" y="1587" type="line"/>
    </contour>
    <contour>
      <point x="494" y="1493" type="line"/>
      <point x="739" y="1493" type="line"/>
      <point x="1196" y="0" type="line"/>
      <point x="987" y="0" type="line"/>
      <point x="877" y="389" type="line"/>
      <point x="354" y="389" type="line"/>
      <point x="246" y="0" type="line"/>
      <point x="37" y="0" type="line"/>
    </contour>
    <contour>
      <point x="829" y="551" type="line"/>
      <point x="616" y="1315" type="line"/>
      <point x="403" y="551" type="line"/>
    </contour>
  </outline>
</glyph>
<glyph name="Icircumflex" format="1">
  <advance width="1233"/>
  <unicode hex="00CE"/>
  <outline>
    <contour>
      <point x="521" y="1852" type="line" name="av01"/>
      <point x="710" y="1852" type="line"/>
      <point x="921" y="1586" type="line" name="iv01"/>
      <point x="781" y="1586" type="line"/>
      <point x="615" y="1764" type="line"/>
      <point x="450" y="1586" type="line"/>
      <point x="310" y="1586" type="line" name="iv02"/>
    </contour>
    <contour>
      <point x="201" y="170" type="line" name="sv01"/>
      <point x="514" y="170" type="line" name="dh01"/>
      <point x="514" y="1323" type="line" name="sv02"/>
      <point x="201" y="1323" type="line"/>
      <point x="201" y="1493" type="line" name="at01"/>
      <point x="1030" y="1493" type="line"/>
      <point x="1030" y="1323" type="line" name="sv03"/>
      <point x="717" y="1323" type="line" name="sv04"/>
      <point x="717" y="170" type="line" name="dh02"/>
      <point x="1030" y="170" type="line" name="sv05"/>
      <point x="1030" y="0" type="line" name="ab01"/>
      <point x="201" y="0" type="line"/>
    </contour>
  </outline>
</glyph>
<glyph name="ccedilla" format="1">
  <advance width="1233"/>
  <unicode hex="00E7"/>
  <outline>
    <contour>
      <point x="718" y="991" type="curve" smooth="yes" name="dv03"/>
      <point x="602" y="991"/>
      <point x="513" y="954" name="dh02"/>
      <point x="451" y="879" type="curve" smooth="yes"/>
      <point x="389" y="804" name="dv06"/>
      <point x="358" y="697"/>
      <point x="358" y="560" type="curve" smooth="yes"/>
      <point x="358" y="432"/>
      <point x="384" y="320"/>
      <point x="451" y="240" type="curve" smooth="yes" name="ih01"/>
      <point x="514" y="165"/>
      <point x="604" y="127" name="dh04"/>
      <point x="721" y="127" type="curve" smooth="yes"/>
      <point x="788" y="127" name="dv01"/>
      <point x="842" y="138" name="sv01"/>
      <point x="889" y="157" type="curve" smooth="yes"/>
      <point x="949" y="180" name="dh03"/>
      <point x="989" y="209"/>
      <point x="1030" y="248" type="curve" name="dv02"/>
      <point x="1030" y="57" type="line"/>
      <point x="985" y="30"/>
      <point x="929" y="7"/>
      <point x="878" y="-8" type="curve" smooth="yes" name="dv05"/>
      <point x="851" y="-15"/>
      <point x="825" y="-21" name="dh01"/>
      <point x="794" y="-24" type="curve"/>
      <point x="821" y="-56" name="dv04"/>
      <point x="841" y="-86"/>
      <point x="856" y="-115" type="curve" smooth="yes"/>
      <point x="871" y="-146"/>
      <point x="882" y="-179"/>
      <point x="882" y="-219" type="curve" smooth="yes"/>
      <point x="882" y="-272"/>
      <point x="862" y="-319"/>
      <point x="822" y="-350" type="curve" smooth="yes"/>
      <point x="783" y="-379"/>
      <point x="726" y="-395"/>
      <point x="643" y="-395" type="curve" smooth="yes"/>
      <point x="614" y="-395"/>
      <point x="585" y="-393"/>
      <point x="556" y="-389" type="curve" smooth="yes"/>
      <point x="525" y="-385"/>
      <point x="496" y="-379"/>
      <point x="468" y="-371" type="curve"/>
      <point x="468" y="-240" type="line"/>
      <point x="491" y="-251"/>
      <point x="515" y="-260"/>
      <point x="540" y="-265" type="curve" smooth="yes"/>
      <point x="565" y="-270"/>
      <point x="596" y="-272"/>
      <point x="619" y="-272" type="curve" smooth="yes"/>
      <point x="662" y="-272"/>
      <point x="693" y="-264"/>
      <point x="713" y="-248" type="curve" smooth="yes"/>
      <point x="733" y="-232"/>
      <point x="743" y="-209"/>
      <point x="743" y="-180" type="curve" smooth="yes"/>
      <point x="743" y="-159"/>
      <point x="736" y="-134"/>
      <point x="721" y="-105" type="curve" smooth="yes"/>
      <point x="710" y="-84"/>
      <point x="695" y="-58"/>
      <point x="674" y="-28" type="curve"/>
      <point x="525" y="-20"/>
      <point x="399" y="32"/>
      <point x="310" y="127" type="curve" smooth="yes"/>
      <point x="214" y="230"/>
      <point x="164" y="376"/>
      <point x="164" y="559" type="curve" smooth="yes"/>
      <point x="164" y="750"/>
      <point x="218" y="893"/>
      <point x="311" y="992" type="curve" smooth="yes"/>
      <point x="410" y="1096"/>
      <point x="546" y="1147"/>
      <point x="713" y="1147" type="curve" smooth="yes"/>
      <point x="774" y="1147"/>
      <point x="824" y="1141"/>
      <point x="875" y="1126" type="curve" smooth="yes"/>
      <point x="926" y="1112"/>
      <point x="977" y="1090"/>
      <point x="1030" y="1061" type="curve"/>
      <point x="1030" y="868" type="line"/>
      <point x="981" y="911"/>
      <point x="933" y="943"/>
      <point x="884" y="962" type="curve" smooth="yes"/>
      <point x="834" y="981"/>
      <point x="779" y="991"/>
    </contour>
  </outline>
</glyph>
<glyph name="eacute" format="1">
  <advance width="1233"/>
  <unicode hex="00E9"/>
  <outline>
    <contour>
      <point x="771" y="1673" type="line" name="av01"/>
      <point x="969" y="1673" type="line" name="ih01"/>
      <point x="644" y="1297" type="line"/>
      <point x="490" y="1297" type="line" name="ih02"/>
    </contour>
    <contour>
      <point x="677" y="-29" type="curve" smooth="yes" name="dv01"/>
      <point x="505" y="-29"/>
      <point x="367" y="24" name="sh02"/>
      <point x="271" y="127" type="curve" smooth="yes"/>
      <point x="175" y="230" name="dv04"/>
      <point x="124" y="375"/>
      <point x="124" y="558" type="curve" smooth="yes" name="sh01"/>
      <point x="124" y="746"/>
      <point x="178" y="887" name="sh03"/>
      <point x="267" y="987" type="curve" smooth="yes"/>
      <point x="364" y="1095"/>
      <point x="498" y="1147" name="dv02"/>
      <point x="649" y="1147" type="curve" smooth="yes"/>
      <point x="798" y="1147" name="ih03"/>
      <point x="910" y="1096"/>
      <point x="990" y="1003" type="curve" smooth="yes"/>
      <point x="1070" y="910"/>
      <point x="1113" y="777" name="ah02"/>
      <point x="1113" y="606" type="curve" smooth="yes"/>
      <point x="1113" y="516" type="line" name="dv03"/>
      <point x="316" y="516" type="line"/>
      <point x="316" y="510" type="line" smooth="yes" name="sh04"/>
      <point x="316" y="388" name="ah01"/>
      <point x="348" y="294" name="sh05"/>
      <point x="412" y="227" type="curve" smooth="yes"/>
      <point x="473" y="163"/>
      <point x="559" y="127"/>
      <point x="680" y="127" type="curve" smooth="yes"/>
      <point x="741" y="127"/>
      <point x="802" y="136"/>
      <point x="865" y="155" type="curve" smooth="yes"/>
      <point x="930" y="174"/>
      <point x="998" y="203"/>
      <point x="1070" y="240" type="curve"/>
      <point x="1070" y="57" type="line"/>
      <point x="999" y="28"/>
      <point x="923" y="4"/>
      <point x="868" y="-8" type="curve" smooth="yes"/>
      <point x="804" y="-23"/>
      <point x="740" y="-29"/>
    </contour>
    <contour>
      <point x="929" y="660" type="line"/>
      <point x="926" y="775"/>
      <point x="897" y="856"/>
      <point x="853" y="907" type="curve" smooth="yes"/>
      <point x="805" y="963"/>
      <point x="733" y="991"/>
      <point x="645" y="991" type="curve" smooth="yes"/>
      <point x="555" y="991"/>
      <point x="482" y="962"/>
      <point x="425" y="903" type="curve" smooth="yes"/>
      <point x="368" y="844"/>
      <point x="334" y="762"/>
      <point x="323" y="659" type="curve"/>
    </contour>
  </outline>
</glyph>
<glyph name="ecircumflex" format="1">
  <advance width="1233"/>
  <unicode hex="00EA"/>
  <outline>
    <contour>
      <point x="558" y="1673" type="line" name="av01"/>
      <point x="705" y="1673" type="line"/>
      <point x="951" y="1297" type="line" name="ih01"/>
      <point x="812" y="1297" type="line"/>
      <point x="631" y="1542" type="line" name="ih02"/>
      <point x="451" y="1297" type="line"/>
      <point x="312" y="1297" type="line" name="sh04"/>
    </contour>
    <contour>
      <point x="677" y="-29" type="curve" smooth="yes" name="dv01"/>
      <point x="505" y="-29"/>
      <point x="367" y="24" name="sh02"/>
      <point x="271" y="127" type="curve" smooth="yes"/>
      <point x="175" y="230" name="dv04"/>
      <point x="124" y="375"/>
      <point x="124" y="558" type="curve" smooth="yes" name="sh01"/>
      <point x="124" y="746"/>
      <point x="178" y="887" name="sh03"/>
      <point x="267" y="987" type="curve" smooth="yes"/>
      <point x="364" y="1095"/>
      <point x="498" y="1147" name="dv02"/>
      <point x="649" y="1147" type="curve" smooth="yes"/>
      <point x="798" y="1147" name="ih03"/>
      <point x="910" y="1096"/>
      <point x="990" y="1003" type="curve" smooth="yes"/>
      <point x="1070" y="910"/>
      <point x="1113" y="777" name="ah02"/>
      <point x="1113" y="606" type="curve" smooth="yes"/>
      <point x="1113" y="516" type="line" name="dv03"/>
      <point x="316" y="516" type="line"/>
      <point x="316" y="510" type="line" smooth="yes" name="sh05"/>
      <point x="316" y="388" name="ah01"/>
      <point x="348" y="294" name="sh06"/>
      <point x="412" y="227" type="curve" smooth="yes"/>
      <point x="473" y="163"/>
      <point x="559" y="127"/>
      <point x="680" y="127" type="curve" smooth="yes"/>
      <point x="741" y="127"/>
      <point x="802" y="136"/>
      <point x="865" y="155" type="curve" smooth="yes"/>
      <point x="930" y="174"/>
      <point x="998" y="203"/>
      <point x="1070" y="240" type="curve"/>
      <point x="1070" y="57" type="line"/>
      <point x="999" y="28"/>
      <point x="923" y="4"/>
      <point x="868" y="-8" type="curve" smooth="yes"/>
      <point x="804" y="-23"/>
      <point x="740" y="-29"/>
    </contour>
    <contour>
      <point x="929" y="660" type="line"/>
      <point x="926" y="775"/>
      <point x="897" y="856"/>
      <point x="853" y="907" type="curve" smooth="yes"/>
      <point x="805" y="963"/>
      <point x="733" y="991"/>
      <point x="645" y="991" type="curve" smooth="yes"/>
      <point x="555" y="991"/>
      <point x="482" y="962"/>
      <point x="425" y="903" type="curve" smooth="yes"/>
      <point x="368" y="844"/>
      <point x="334" y="762"/>
      <point x="323" y="659" type="curve"/>
    </contour>
  </outline>
</glyph>
<glyph name="ocircumflex" format="1">
  <advance width="1233"/>
  <unicode hex="00F4"/>
  <outline>
    <contour>
      <point x="543" y="1673" type="line" name="av01"/>
      <point x="690" y="1673" type="line"/>
      <point x="936" y="1297" type="line" name="ih01"/>
      <point x="797" y="1297" type="line"/>
      <point x="616" y="1542" type="line" name="ih02"/>
      <point x="436" y="1297" type="line"/>
      <point x="297" y="1297" type="line" name="ih03"/>
    </contour>
    <contour>
      <point x="616" y="-29" type="curve" smooth="yes" name="dv01"/>
      <point x="463" y="-29"/>
      <point x="343" y="21" name="sh02"/>
      <point x="260" y="121" type="curve"/>
      <point x="176" y="225" name="dv04"/>
      <point x="137" y="373"/>
      <point x="137" y="560" type="curve" smooth="yes" name="sh01"/>
      <point x="137" y="749"/>
      <point x="178" y="895"/>
      <point x="260" y="996" type="curve" smooth="yes" name="dv02"/>
      <point x="342" y="1097"/>
      <point x="461" y="1147" name="ah02"/>
      <point x="616" y="1147" type="curve" smooth="yes"/>
      <point x="776" y="1147" name="dv03"/>
      <point x="893" y="1095"/>
      <point x="973" y="996" type="curve" smooth="yes" name="sh03"/>
      <point x="1055" y="895"/>
      <point x="1096" y="750"/>
      <point x="1096" y="561" type="curve" smooth="yes" name="ah01"/>
      <point x="1096" y="370" name="sh04"/>
      <point x="1056" y="221"/>
      <point x="973" y="121" type="curve"/>
      <point x="893" y="22"/>
      <point x="773" y="-29"/>
    </contour>
    <contour>
      <point x="616" y="127" type="curve" smooth="yes"/>
      <point x="710" y="127"/>
      <point x="781" y="164"/>
      <point x="829" y="237" type="curve" smooth="yes"/>
      <point x="877" y="310"/>
      <point x="901" y="417"/>
      <point x="901" y="559" type="curve" smooth="yes"/>
      <point x="901" y="701"/>
      <point x="877" y="809"/>
      <point x="829" y="882" type="curve" smooth="yes"/>
      <point x="781" y="955"/>
      <point x="710" y="991"/>
      <point x="616" y="991" type="curve" smooth="yes"/>
      <point x="523" y="991"/>
      <point x="452" y="955"/>
      <point x="404" y="882" type="curve" smooth="yes"/>
      <point x="356" y="809"/>
      <point x="332" y="701"/>
      <point x="332" y="559" type="curve" smooth="yes"/>
      <point x="332" y="417"/>
      <point x="356" y="310"/>
      <point x="404" y="237" type="curve" smooth="yes"/>
      <point x="452" y="164"/>
      <point x="523" y="127"/>
    </contour>
  </outline>
</glyph>
<glyph name="amacron" format="1">
  <advance width="1233"/>
  <unicode hex="0101"/>
  <outline>
    <contour>
      <point x="320" y="1496" type="line" name="sh03"/>
      <point x="918" y="1496" type="line"/>
      <point x="918" y="1348" type="line" name="sv01"/>
      <point x="320" y="1348" type="line"/>
    </contour>
    <contour>
      <point x="513" y="-29" type="curve" smooth="yes" name="dv01"/>
      <point x="397" y="-29"/>
      <point x="305" y="3" name="sh01"/>
      <point x="238" y="68" type="curve" smooth="yes"/>
      <point x="174" y="129"/>
      <point x="136" y="210" name="ah02"/>
      <point x="136" y="327" type="curve" smooth="yes"/>
      <point x="136" y="450"/>
      <point x="178" y="545" name="dv03"/>
      <point x="262" y="610" type="curve" smooth="yes"/>
      <point x="345" y="675" name="ih01"/>
      <point x="467" y="707"/>
      <point x="630" y="707" type="curve" smooth="yes"/>
      <point x="877" y="707" type="line" name="dv04"/>
      <point x="877" y="736" type="line" smooth="yes"/>
      <point x="877" y="821"/>
      <point x="854" y="890"/>
      <point x="809" y="931" type="curve" smooth="yes" name="sh04"/>
      <point x="765" y="971"/>
      <point x="692" y="991" name="sh05"/>
      <point x="596" y="991" type="curve" smooth="yes"/>
      <point x="533" y="991" name="ab01"/>
      <point x="469" y="982"/>
      <point x="405" y="964" type="curve" smooth="yes" name="hr01"/>
      <point x="340" y="946" name="ih02"/>
      <point x="278" y="920"/>
      <point x="218" y="885" type="curve"/>
      <point x="218" y="1069" type="line" name="dv02"/>
      <point x="274" y="1090"/>
      <point x="345" y="1113" name="sh06"/>
      <point x="414" y="1128" type="curve" smooth="yes" name="dv05"/>
      <point x="475" y="1141"/>
      <point x="536" y="1147"/>
      <point x="597" y="1147" type="curve" smooth="yes" name="sh02"/>
      <point x="692" y="1147"/>
      <point x="767" y="1133"/>
      <point x="834" y="1105" type="curve" name="ah01"/>
      <point x="895" y="1078" name="sh07"/>
      <point x="953" y="1037"/>
      <point x="992" y="984" type="curve" smooth="yes"/>
      <point x="1020" y="945"/>
      <point x="1037" y="901"/>
      <point x="1046" y="860" type="curve" smooth="yes"/>
      <point x="1057" y="811"/>
      <point x="1062" y="738"/>
      <point x="1062" y="639" type="curve" smooth="yes"/>
      <point x="1062" y="410" type="line"/>
      <point x="1065" y="333"/>
      <point x="1064" y="277"/>
      <point x="1071" y="226" type="curve" smooth="yes"/>
      <point x="1078" y="170"/>
      <point x="1087" y="116"/>
      <point x="1094" y="91" type="curve"/>
      <point x="1103" y="50"/>
      <point x="1118" y="7"/>
      <point x="1121" y="0" type="curve"/>
      <point x="936" y="0" type="line"/>
      <point x="929" y="16"/>
      <point x="918" y="50"/>
      <point x="909" y="87" type="curve" smooth="yes"/>
      <point x="902" y="116"/>
      <point x="896" y="149"/>
      <point x="893" y="170" type="curve"/>
      <point x="854" y="103"/>
      <point x="788" y="50"/>
      <point x="729" y="19" type="curve" smooth="yes"/>
      <point x="665" y="-14"/>
      <point x="594" y="-29"/>
    </contour>
    <contour>
      <point x="551" y="125" type="curve" smooth="yes"/>
      <point x="652" y="125"/>
      <point x="731" y="160"/>
      <point x="789" y="231" type="curve" smooth="yes"/>
      <point x="848" y="303"/>
      <point x="877" y="400"/>
      <point x="877" y="522" type="curve" smooth="yes"/>
      <point x="877" y="563" type="line"/>
      <point x="644" y="563" type="line" smooth="yes" name="hr02"/>
      <point x="537" y="563"/>
      <point x="457" y="544"/>
      <point x="402" y="507" type="curve" smooth="yes"/>
      <point x="345" y="468"/>
      <point x="320" y="412"/>
      <point x="320" y="337" type="curve" smooth="yes"/>
      <point x="320" y="268"/>
      <point x="342" y="217"/>
      <point x="381" y="181" type="curve" smooth="yes"/>
      <point x="420" y="146"/>
      <point x="474" y="125"/>
    </contour>
  </outline>
</glyph>
<glyph name="Cdotaccent" format="1">
  <advance width="1233"/>
  <unicode hex="010A"/>
  <outline>
    <contour>
      <point x="618" y="1647" type="line" smooth="yes" name="dv03"/>
      <point x="598" y="1647" name="ah02"/>
      <point x="588" y="1657"/>
      <point x="588" y="1677" type="curve" smooth="yes" name="dv04"/>
      <point x="588" y="1822" type="line" smooth="yes"/>
      <point x="588" y="1842"/>
      <point x="598" y="1852" name="sh01"/>
      <point x="618" y="1852" type="curve" smooth="yes"/>
      <point x="763" y="1852" type="line" smooth="yes" name="dv01"/>
      <point x="783" y="1852" name="sh02"/>
      <point x="793" y="1842" name="at01"/>
      <point x="793" y="1822" type="curve" smooth="yes"/>
      <point x="793" y="1677" type="line" smooth="yes"/>
      <point x="793" y="1657" name="sv01"/>
      <point x="783" y="1647" name="sh03"/>
      <point x="763" y="1647" type="curve" smooth="yes" name="dv02"/>
    </contour>
    <contour>
      <point x="744" y="-29" type="curve" smooth="yes"/>
      <point x="360" y="-29"/>
      <point x="139" y="255"/>
      <point x="139" y="743" type="curve" smooth="yes" name="ah01"/>
      <point x="139" y="1233"/>
      <point x="361" y="1520"/>
      <point x="745" y="1520" type="curve" smooth="yes"/>
      <point x="864" y="1520"/>
      <point x="969" y="1494"/>
      <point x="1073" y="1438" type="curve"/>
      <point x="1073" y="1231" type="line"/>
      <point x="976" y="1311"/>
      <point x="864" y="1356"/>
      <point x="740" y="1356" type="curve" smooth="yes"/>
      <point x="481" y="1356"/>
      <point x="350" y="1154"/>
      <point x="350" y="745" type="curve" smooth="yes"/>
      <point x="350" y="338"/>
      <point x="480" y="135"/>
      <point x="740" y="135" type="curve" smooth="yes"/>
      <point x="861" y="135"/>
      <point x="976" y="179"/>
      <point x="1073" y="260" type="curve"/>
      <point x="1073" y="53" type="line"/>
      <point x="969" y="-3"/>
      <point x="864" y="-29"/>
    </contour>
  </outline>
</glyph>
<glyph name="eogonek" format="1">
  <advance width="1233"/>
  <unicode hex="0119"/>
  <outline>
    <contour>
      <point x="316" y="516" type="line" name="dh02"/>
      <point x="316" y="510" type="line" smooth="yes"/>
      <point x="316" y="266" name="dv06"/>
      <point x="450" y="127" name="ih01"/>
      <point x="680" y="127" type="curve" smooth="yes"/>
      <point x="800" y="127"/>
      <point x="925" y="164" name="dh04"/>
      <point x="1070" y="240" type="curve" name="dv02"/>
      <point x="1070" y="57" type="line" name="sh01"/>
      <point x="1009" y="32"/>
      <point x="950" y="14" name="dv01"/>
      <point x="893" y="-1" type="curve" name="dh03"/>
      <point x="830" y="-88" name="ih02"/>
      <point x="806" y="-139" name="dv05"/>
      <point x="806" y="-184" type="curve" smooth="yes" name="dh01"/>
      <point x="806" y="-240" name="dv04"/>
      <point x="844" y="-272" name="dh06"/>
      <point x="916" y="-272" type="curve" smooth="yes"/>
      <point x="957" y="-272" name="dv03"/>
      <point x="999" y="-262" name="sh02"/>
      <point x="1040" y="-242" type="curve" name="dh05"/>
      <point x="1040" y="-375" type="line"/>
      <point x="984" y="-390"/>
      <point x="946" y="-395" name="sh03"/>
      <point x="897" y="-395" type="curve" smooth="yes"/>
      <point x="748" y="-395"/>
      <point x="667" y="-340"/>
      <point x="667" y="-221" type="curve" smooth="yes"/>
      <point x="667" y="-162"/>
      <point x="688" y="-104"/>
      <point x="754" y="-25" type="curve" name="hr01"/>
      <point x="727" y="-28"/>
      <point x="702" y="-29"/>
      <point x="677" y="-29" type="curve" smooth="yes"/>
      <point x="330" y="-29"/>
      <point x="124" y="195"/>
      <point x="124" y="555" type="curve" smooth="yes"/>
      <point x="124" y="916"/>
      <point x="333" y="1147"/>
      <point x="645" y="1147" type="curve" smooth="yes" name="hr02"/>
      <point x="941" y="1147"/>
      <point x="1113" y="941"/>
      <point x="1113" y="606" type="curve" smooth="yes"/>
      <point x="1113" y="516" type="line"/>
    </contour>
    <contour>
      <point x="647" y="991" type="curve" smooth="yes"/>
      <point x="466" y="991"/>
      <point x="346" y="871"/>
      <point x="323" y="659" type="curve"/>
      <point x="929" y="660" type="line"/>
      <point x="925" y="869"/>
      <point x="828" y="991"/>
    </contour>
  </outline>
</glyph>
<glyph name="gbreve" format="1">
  <advance width="1233"/>
  <unicode hex="011F"/>
  <outline>
    <contour>
      <point x="644" y="1298" type="curve" smooth="yes" name="dv03"/>
      <point x="548" y="1298"/>
      <point x="474" y="1322" name="sh03"/>
      <point x="421" y="1370" type="curve" smooth="yes" name="sv01"/>
      <point x="368" y="1418"/>
      <point x="338" y="1490" name="dv04"/>
      <point x="331" y="1585" type="curve"/>
      <point x="450" y="1585" type="line" name="sv02"/>
      <point x="457" y="1535"/>
      <point x="476" y="1497"/>
      <point x="509" y="1472" type="curve" smooth="yes"/>
      <point x="540" y="1447" name="dv01"/>
      <point x="585" y="1435"/>
      <point x="644" y="1435" type="curve" smooth="yes"/>
      <point x="701" y="1435" name="ih01"/>
      <point x="746" y="1447"/>
      <point x="777" y="1472" type="curve" smooth="yes" name="dv02"/>
      <point x="810" y="1497"/>
      <point x="830" y="1535" name="ah02"/>
      <point x="839" y="1585" type="curve"/>
      <point x="958" y="1585" type="line"/>
      <point x="951" y="1490" name="ab01"/>
      <point x="921" y="1418"/>
      <point x="868" y="1370" type="curve" smooth="yes" name="sh01"/>
      <point x="815" y="1322"/>
      <point x="740" y="1298" name="dv06"/>
    </contour>
    <contour>
      <point x="601" y="-440" type="curve" smooth="yes" name="sh04"/>
      <point x="549" y="-440"/>
      <point x="498" y="-435"/>
      <point x="442" y="-426" type="curve" smooth="yes" name="sh05"/>
      <point x="387" y="-417"/>
      <point x="335" y="-404"/>
      <point x="276" y="-385" type="curve" name="sv03"/>
      <point x="276" y="-203" type="line"/>
      <point x="341" y="-234" name="sh06"/>
      <point x="403" y="-256"/>
      <point x="454" y="-271" type="curve" smooth="yes" name="dv05"/>
      <point x="506" y="-286"/>
      <point x="556" y="-293" name="sh02"/>
      <point x="605" y="-293" type="curve" smooth="yes"/>
      <point x="704" y="-293"/>
      <point x="771" y="-267" name="ah01"/>
      <point x="818" y="-211" type="curve" smooth="yes" name="sh07"/>
      <point x="862" y="-158"/>
      <point x="886" y="-79"/>
      <point x="886" y="45" type="curve" smooth="yes"/>
      <point x="886" y="178" type="line"/>
      <point x="857" y="116"/>
      <point x="817" y="69"/>
      <point x="766" y="38" type="curve" smooth="yes"/>
      <point x="715" y="7"/>
      <point x="654" y="-8"/>
      <point x="582" y="-8" type="curve" smooth="yes"/>
      <point x="451" y="-8"/>
      <point x="346" y="44"/>
      <point x="268" y="149" type="curve" smooth="yes"/>
      <point x="190" y="254"/>
      <point x="151" y="394"/>
      <point x="151" y="569" type="curve" smooth="yes"/>
      <point x="151" y="744"/>
      <point x="190" y="885"/>
      <point x="268" y="990" type="curve" smooth="yes"/>
      <point x="347" y="1095"/>
      <point x="448" y="1147"/>
      <point x="583" y="1147" type="curve" smooth="yes"/>
      <point x="652" y="1147"/>
      <point x="713" y="1133"/>
      <point x="764" y="1104" type="curve" smooth="yes"/>
      <point x="815" y="1075"/>
      <point x="855" y="1030"/>
      <point x="886" y="971" type="curve"/>
      <point x="904" y="1116" type="line"/>
      <point x="1070" y="1116" type="line"/>
      <point x="1070" y="72" type="line" smooth="yes"/>
      <point x="1070" y="-95"/>
      <point x="1030" y="-223"/>
      <point x="951" y="-310" type="curve" smooth="yes"/>
      <point x="872" y="-397"/>
      <point x="756" y="-440"/>
    </contour>
    <contour>
      <point x="622" y="145" type="curve" smooth="yes"/>
      <point x="709" y="145"/>
      <point x="774" y="181"/>
      <point x="819" y="254" type="curve" smooth="yes"/>
      <point x="864" y="327"/>
      <point x="886" y="432"/>
      <point x="886" y="569" type="curve" smooth="yes"/>
      <point x="886" y="708"/>
      <point x="864" y="813"/>
      <point x="819" y="884" type="curve" smooth="yes" name="hr01"/>
      <point x="772" y="960"/>
      <point x="704" y="991"/>
      <point x="621" y="991" type="curve" smooth="yes"/>
      <point x="532" y="991"/>
      <point x="463" y="955"/>
      <point x="416" y="884" type="curve" smooth="yes" name="hr02"/>
      <point x="369" y="813"/>
      <point x="345" y="707"/>
      <point x="345" y="568" type="curve" smooth="yes"/>
      <point x="345" y="431"/>
      <point x="369" y="327"/>
      <point x="417" y="254" type="curve" smooth="yes"/>
      <point x="465" y="181"/>
      <point x="533" y="145"/>
    </contour>
  </outline>
</glyph>
<glyph name="Gdotaccent" format="1">
  <advance width="1233"/>
  <unicode hex="0120"/>
  <outline>
    <contour>
      <point x="618" y="1647" type="line" smooth="yes" name="dv03"/>
      <point x="598" y="1647" name="dh03"/>
      <point x="588" y="1657"/>
      <point x="588" y="1677" type="curve" smooth="yes" name="dv04"/>
      <point x="588" y="1822" type="line" smooth="yes"/>
      <point x="588" y="1842"/>
      <point x="598" y="1852" name="dh04"/>
      <point x="618" y="1852" type="curve" smooth="yes"/>
      <point x="763" y="1852" type="line" smooth="yes" name="dv01"/>
      <point x="783" y="1852" name="dh01"/>
      <point x="793" y="1842" name="at01"/>
      <point x="793" y="1822" type="curve" smooth="yes" name="hr01"/>
      <point x="793" y="1677" type="line" smooth="yes" name="ih02"/>
      <point x="793" y="1657" name="sv01"/>
      <point x="783" y="1647" name="dh02"/>
      <point x="763" y="1647" type="curve" smooth="yes" name="dv02"/>
    </contour>
    <contour>
      <point x="700" y="-29" type="curve" smooth="yes" name="sh02"/>
      <point x="324" y="-29" name="dv05"/>
      <point x="102" y="255"/>
      <point x="102" y="743" type="curve" smooth="yes" name="ih01"/>
      <point x="102" y="1233" name="sh01"/>
      <point x="327" y="1520"/>
      <point x="703" y="1520" type="curve" smooth="yes"/>
      <point x="835" y="1520"/>
      <point x="945" y="1485" name="sh03"/>
      <point x="1053" y="1413" type="curve"/>
      <point x="1053" y="1206" type="line"/>
      <point x="945" y="1310"/>
      <point x="835" y="1356"/>
      <point x="707" y="1356" type="curve" smooth="yes"/>
      <point x="440" y="1356"/>
      <point x="313" y="1155"/>
      <point x="313" y="739" type="curve" smooth="yes"/>
      <point x="313" y="330"/>
      <point x="438" y="135"/>
      <point x="705" y="135" type="curve" smooth="yes"/>
      <point x="790" y="135"/>
      <point x="855" y="155"/>
      <point x="911" y="199" type="curve"/>
      <point x="911" y="600" type="line"/>
      <point x="694" y="600" type="line"/>
      <point x="694" y="766" type="line"/>
      <point x="1104" y="766" type="line"/>
      <point x="1104" y="123" type="line"/>
      <point x="996" y="23"/>
      <point x="861" y="-29"/>
    </contour>
  </outline>
</glyph>
<glyph name="itilde" format="1">
  <advance width="1233"/>
  <unicode hex="0129"/>
  <outline>
    <contour>
      <point x="268" y="1259" type="line" name="sh01"/>
      <point x="268" y="1433" name="dv02"/>
      <point x="338" y="1541"/>
      <point x="463" y="1541" type="curve" smooth="yes"/>
      <point x="514" y="1541"/>
      <point x="553" y="1524"/>
      <point x="602" y="1480" type="curve" name="sv01"/>
      <point x="659" y="1425" type="line" smooth="yes"/>
      <point x="691" y="1394" name="sv02"/>
      <point x="710" y="1386"/>
      <point x="729" y="1386" type="curve" smooth="yes"/>
      <point x="752" y="1386"/>
      <point x="771" y="1398"/>
      <point x="783" y="1423" type="curve" smooth="yes" name="dv01"/>
      <point x="794" y="1447" name="ab01"/>
      <point x="801" y="1486"/>
      <point x="802" y="1541" type="curve" name="sh02"/>
      <point x="927" y="1541" type="line" name="sv03"/>
      <point x="927" y="1367"/>
      <point x="857" y="1259" name="dh01"/>
      <point x="732" y="1259" type="curve" smooth="yes" name="dh02"/>
      <point x="681" y="1259"/>
      <point x="642" y="1276"/>
      <point x="593" y="1320" type="curve" name="sv04"/>
      <point x="536" y="1375" type="line" smooth="yes"/>
      <point x="508" y="1402"/>
      <point x="489" y="1414"/>
      <point x="466" y="1414" type="curve" smooth="yes"/>
      <point x="443" y="1414"/>
      <point x="424" y="1402"/>
      <point x="412" y="1377" type="curve" smooth="yes"/>
      <point x="399" y="1351"/>
      <point x="393" y="1312"/>
      <point x="392" y="1259" type="curve"/>
    </contour>
    <contour>
      <point x="859" y="-8" type="line" smooth="yes"/>
      <point x="752" y="-8"/>
      <point x="668" y="23"/>
      <point x="604" y="98" type="curve" smooth="yes"/>
      <point x="543" y="169"/>
      <point x="513" y="269"/>
      <point x="513" y="398" type="curve" smooth="yes"/>
      <point x="513" y="976" type="line"/>
      <point x="268" y="976" type="line"/>
      <point x="268" y="1120" type="line"/>
      <point x="697" y="1120" type="line"/>
      <point x="697" y="398" type="line" smooth="yes"/>
      <point x="697" y="315"/>
      <point x="712" y="252"/>
      <point x="743" y="211" type="curve" smooth="yes"/>
      <point x="775" y="167"/>
      <point x="820" y="148"/>
      <point x="877" y="148" type="curve" smooth="yes"/>
      <point x="1092" y="148" type="line"/>
      <point x="1092" y="-8" type="line" name="hr02"/>
    </contour>
  </outline>
</glyph>
<glyph name="Iogonek" format="1">
  <advance width="1233"/>
  <unicode hex="012E"/>
  <outline>
    <contour>
      <point x="717" y="1323" type="line" name="sv01"/>
      <point x="717" y="170" type="line" name="sh01"/>
      <point x="1030" y="170" type="line" name="sv02"/>
      <point x="1030" y="0" type="line" name="ab01"/>
      <point x="717" y="0" type="line"/>
      <point x="653" y="-87" name="dh02"/>
      <point x="629" y="-139" name="dv02"/>
      <point x="629" y="-184" type="curve" smooth="yes" name="sh02"/>
      <point x="629" y="-240"/>
      <point x="667" y="-272" name="dv01"/>
      <point x="739" y="-272" type="curve" smooth="yes" name="dh01"/>
      <point x="780" y="-272" name="ih02"/>
      <point x="822" y="-262"/>
      <point x="863" y="-242" type="curve" name="sv03"/>
      <point x="863" y="-375" type="line" name="ih01"/>
      <point x="807" y="-390" name="sv04"/>
      <point x="769" y="-395" name="sv05"/>
      <point x="720" y="-395" type="curve" smooth="yes" name="at01"/>
      <point x="571" y="-395"/>
      <point x="490" y="-340"/>
      <point x="490" y="-221" type="curve" smooth="yes"/>
      <point x="490" y="-155"/>
      <point x="516" y="-93"/>
      <point x="598" y="0" type="curve"/>
      <point x="201" y="0" type="line"/>
      <point x="201" y="170" type="line"/>
      <point x="514" y="170" type="line" name="hr02"/>
      <point x="514" y="1323" type="line" name="hr03"/>
      <point x="201" y="1323" type="line"/>
      <point x="201" y="1493" type="line"/>
      <point x="1030" y="1493" type="line"/>
      <point x="1030" y="1323" type="line"/>
    </contour>
  </outline>
</glyph>
<glyph name="racute" format="1">
  <advance width="1233"/>
  <unicode hex="0155"/>
  <outline>
    <contour>
      <point x="822" y="1674" type="line" name="av01"/>
      <point x="1020" y="1674" type="line"/>
      <point x="695" y="1298" type="line"/>
      <point x="541" y="1298" type="line" name="iv01"/>
    </contour>
    <contour>
      <point x="302" y="1120" type="line" name="dh01"/>
      <point x="469" y="1120" type="line"/>
      <point x="487" y="901" type="line" name="dh02"/>
      <point x="547" y="1056" name="sv02"/>
      <point x="673" y="1147"/>
      <point x="856" y="1147" type="curve" smooth="yes" name="iv02"/>
      <point x="945" y="1147" name="sv01"/>
      <point x="1023" y="1125" name="sh01"/>
      <point x="1095" y="1077" type="curve" name="ab01"/>
      <point x="1095" y="889" type="line"/>
      <point x="1015" y="950"/>
      <point x="938" y="977"/>
      <point x="841" y="977" type="curve" smooth="yes"/>
      <point x="610" y="977"/>
      <point x="487" y="830"/>
      <point x="487" y="557" type="curve" smooth="yes"/>
      <point x="487" y="0" type="line"/>
      <point x="302" y="0" type="line"/>
    </contour>
  </outline>
</glyph>
<glyph name="Scaron" format="1">
  <advance width="1233"/>
  <unicode hex="0160"/>
  <outline>
    <contour>
      <point x="327" y="1852" type="line" name="sh03"/>
      <point x="467" y="1852" type="line"/>
      <point x="632" y="1674" type="line"/>
      <point x="798" y="1852" type="line" name="sv02"/>
      <point x="938" y="1852" type="line" name="ih01"/>
      <point x="727" y="1586" type="line"/>
      <point x="538" y="1586" type="line"/>
    </contour>
    <contour>
      <point x="584" y="-29" type="curve" smooth="yes" name="dv01"/>
      <point x="508" y="-29"/>
      <point x="435" y="-22"/>
      <point x="371" y="-7" type="curve" name="ih02"/>
      <point x="300" y="8"/>
      <point x="226" y="33" name="dv02"/>
      <point x="158" y="61" type="curve"/>
      <point x="158" y="276" type="line" name="ah02"/>
      <point x="235" y="227"/>
      <point x="307" y="192"/>
      <point x="376" y="169" type="curve" smooth="yes"/>
      <point x="448" y="145"/>
      <point x="515" y="135" name="sh01"/>
      <point x="582" y="135" type="curve" smooth="yes"/>
      <point x="682" y="135" name="at01"/>
      <point x="763" y="158"/>
      <point x="820" y="203" type="curve" smooth="yes"/>
      <point x="873" y="246" name="ih03"/>
      <point x="905" y="307"/>
      <point x="905" y="399" type="curve" smooth="yes" name="sv01"/>
      <point x="905" y="475"/>
      <point x="883" y="529" name="sh02"/>
      <point x="847" y="566" type="curve" smooth="yes"/>
      <point x="806" y="609"/>
      <point x="736" y="636"/>
      <point x="643" y="657" type="curve" smooth="yes"/>
      <point x="535" y="682" type="line" smooth="yes" name="sh04"/>
      <point x="400" y="713"/>
      <point x="300" y="756"/>
      <point x="233" y="824" type="curve" smooth="yes" name="ah01"/>
      <point x="172" y="887" name="sh05"/>
      <point x="139" y="967"/>
      <point x="139" y="1079" type="curve" smooth="yes"/>
      <point x="139" y="1216"/>
      <point x="189" y="1325"/>
      <point x="274" y="1401" type="curve" smooth="yes"/>
      <point x="359" y="1477"/>
      <point x="479" y="1520"/>
      <point x="631" y="1520" type="curve" smooth="yes"/>
      <point x="688" y="1520"/>
      <point x="748" y="1514"/>
      <point x="812" y="1501" type="curve" smooth="yes"/>
      <point x="874" y="1488"/>
      <point x="941" y="1469"/>
      <point x="1012" y="1442" type="curve"/>
      <point x="1012" y="1237" type="line"/>
      <point x="945" y="1280"/>
      <point x="884" y="1307"/>
      <point x="828" y="1326" type="curve" smooth="yes"/>
      <point x="766" y="1346"/>
      <point x="704" y="1356"/>
      <point x="642" y="1356" type="curve" smooth="yes"/>
      <point x="542" y="1356"/>
      <point x="465" y="1331"/>
      <point x="414" y="1290" type="curve" smooth="yes"/>
      <point x="361" y="1247"/>
      <point x="332" y="1185"/>
      <point x="332" y="1105" type="curve" smooth="yes"/>
      <point x="332" y="1050"/>
      <point x="344" y="1000"/>
      <point x="387" y="960" type="curve" smooth="yes"/>
      <point x="426" y="923"/>
      <point x="489" y="895"/>
      <point x="590" y="872" type="curve" smooth="yes"/>
      <point x="696" y="848" type="line" smooth="yes" name="hr01"/>
      <point x="825" y="819"/>
      <point x="930" y="770"/>
      <point x="1001" y="694" type="curve" smooth="yes"/>
      <point x="1066" y="625"/>
      <point x="1098" y="530"/>
      <point x="1098" y="410" type="curve" smooth="yes"/>
      <point x="1098" y="258"/>
      <point x="1048" y="152"/>
      <point x="967" y="83" type="curve" smooth="yes"/>
      <point x="879" y="7"/>
      <point x="747" y="-29"/>
    </contour>
  </outline>
</glyph>
<glyph name="uni0163" format="1">
  <advance width="1233"/>
  <unicode hex="0163"/>
  <outline>
    <contour>
      <point x="1032" y="1120" type="line"/>
      <point x="614" y="1120" type="line"/>
      <point x="614" y="1493" type="line"/>
      <point x="430" y="1413" type="line"/>
      <point x="430" y="1120" type="line"/>
      <point x="131" y="1120" type="line"/>
      <point x="131" y="977" type="line"/>
      <point x="430" y="977" type="line"/>
      <point x="430" y="365" type="line" smooth="yes"/>
      <point x="430" y="153"/>
      <point x="493" y="49"/>
      <point x="645" y="12" type="curve"/>
      <point x="705" y="-75"/>
      <point x="730" y="-124"/>
      <point x="730" y="-163" type="curve" smooth="yes"/>
      <point x="730" y="-224"/>
      <point x="689" y="-255"/>
      <point x="606" y="-255" type="curve" smooth="yes"/>
      <point x="546" y="-255"/>
      <point x="506" y="-247"/>
      <point x="455" y="-223" type="curve" name="hr01"/>
      <point x="455" y="-354" type="line"/>
      <point x="511" y="-370"/>
      <point x="569" y="-378"/>
      <point x="630" y="-378" type="curve" smooth="yes"/>
      <point x="708" y="-378"/>
      <point x="768" y="-363"/>
      <point x="809" y="-333" type="curve"/>
      <point x="849" y="-302"/>
      <point x="869" y="-255"/>
      <point x="869" y="-202" type="curve" smooth="yes"/>
      <point x="869" y="-169"/>
      <point x="860" y="-135"/>
      <point x="843" y="-98" type="curve"/>
      <point x="824" y="-63"/>
      <point x="802" y="-32"/>
      <point x="778" y="-4" type="curve"/>
      <point x="1032" y="-4" type="line"/>
      <point x="1032" y="143" type="line"/>
      <point x="825" y="143" type="line" smooth="yes"/>
      <point x="772" y="143"/>
      <point x="730" y="150"/>
      <point x="700" y="165" type="curve" smooth="yes"/>
      <point x="640" y="193"/>
      <point x="614" y="253"/>
      <point x="614" y="365" type="curve" smooth="yes" name="hr02"/>
      <point x="614" y="977" type="line"/>
      <point x="1032" y="977" type="line"/>
    </contour>
  </outline>
</glyph>
<glyph name="Umacron" format="1">
  <advance width="1233"/>
  <unicode hex="016A"/>
  <outline>
    <contour>
      <point x="317" y="1800" type="line" name="hr00"/>
      <point x="915" y="1800" type="line" name="dv04"/>
      <point x="915" y="1652" type="line" name="dv03"/>
      <point x="317" y="1652" type="line"/>
    </contour>
    <contour>
      <point x="618" y="-29" type="curve" smooth="yes" name="dv01"/>
      <point x="473" y="-29"/>
      <point x="354" y="15"/>
      <point x="274" y="87" type="curve" smooth="yes" name="sh01"/>
      <point x="226" y="131" name="at01"/>
      <point x="195" y="186"/>
      <point x="176" y="250" type="curve" smooth="yes" name="sh02"/>
      <point x="157" y="313" name="sh03"/>
      <point x="147" y="409"/>
      <point x="147" y="573" type="curve" smooth="yes" name="dv02"/>
      <point x="147" y="1493" type="line"/>
      <point x="350" y="1493" type="line" name="sh04"/>
      <point x="350" y="481" type="line" smooth="yes" name="ah02"/>
      <point x="350" y="408" name="at02"/>
      <point x="352" y="357"/>
      <point x="356" y="326" type="curve" smooth="yes" name="sh05"/>
      <point x="364" y="269"/>
      <point x="391" y="201"/>
      <point x="470" y="164" type="curve" smooth="yes"/>
      <point x="509" y="145" name="ah01"/>
      <point x="560" y="135" name="sh06"/>
      <point x="616" y="135" type="curve" smooth="yes"/>
      <point x="729" y="135"/>
      <point x="820" y="178"/>
      <point x="857" y="254" type="curve" smooth="yes"/>
      <point x="865" y="270"/>
      <point x="873" y="294"/>
      <point x="877" y="325" type="curve" smooth="yes"/>
      <point x="881" y="356"/>
      <point x="883" y="407"/>
      <point x="883" y="479" type="curve" smooth="yes"/>
      <point x="883" y="1493" type="line"/>
      <point x="1085" y="1493" type="line"/>
      <point x="1085" y="573" type="line" smooth="yes"/>
      <point x="1085" y="405"/>
      <point x="1075" y="316"/>
      <point x="1056" y="248" type="curve"/>
      <point x="1014" y="108"/>
      <point x="912" y="35"/>
      <point x="807" y="0" type="curve" smooth="yes"/>
      <point x="749" y="-19"/>
      <point x="686" y="-29"/>
    </contour>
  </outline>
</glyph>
<glyph name="Oslashacute" format="1">
  <advance width="1233"/>
  <unicode hex="01FE"/>
  <outline>
    <contour>
      <point x="691" y="1856" type="line" name="sv02"/>
      <point x="877" y="1856" type="line" name="ih01"/>
      <point x="648" y="1592" type="line"/>
      <point x="494" y="1592" type="line" name="ih02"/>
    </contour>
    <contour>
      <point x="8" y="0" type="line"/>
      <point x="186" y="252" type="line"/>
      <point x="143" y="348" name="sh01"/>
      <point x="117" y="536" name="at01"/>
      <point x="117" y="744" type="curve" smooth="yes" name="ih03"/>
      <point x="117" y="1265"/>
      <point x="279" y="1520"/>
      <point x="614" y="1520" type="curve" smooth="yes"/>
      <point x="769" y="1520" name="sh03"/>
      <point x="884" y="1466" name="dv01"/>
      <point x="961" y="1358" type="curve" name="ih04"/>
      <point x="1100" y="1559" type="line" name="sh02"/>
      <point x="1200" y="1485" type="line"/>
      <point x="1032" y="1247" type="line" name="sv01"/>
      <point x="1088" y="1139"/>
      <point x="1116" y="964" name="sh04"/>
      <point x="1116" y="744" type="curve" smooth="yes" name="sh05"/>
      <point x="1116" y="224" name="dv02"/>
      <point x="953" y="-29"/>
      <point x="613" y="-29" type="curve" smooth="yes" name="ah02"/>
      <point x="454" y="-29" name="ih05"/>
      <point x="335" y="25"/>
      <point x="254" y="133" type="curve"/>
      <point x="111" y="-70" type="line" name="ah01"/>
    </contour>
    <contour>
      <point x="842" y="1190" type="line" name="sh06"/>
      <point x="810" y="1294"/>
      <point x="736" y="1356"/>
      <point x="615" y="1356" type="curve" smooth="yes"/>
      <point x="502" y="1356"/>
      <point x="438" y="1303"/>
      <point x="395" y="1210" type="curve" smooth="yes"/>
      <point x="346" y="1101"/>
      <point x="328" y="930"/>
      <point x="328" y="682" type="curve" smooth="yes"/>
      <point x="328" y="581"/>
      <point x="331" y="516"/>
      <point x="338" y="471" type="curve"/>
    </contour>
    <contour>
      <point x="619" y="135" type="curve" smooth="yes"/>
      <point x="720" y="135"/>
      <point x="793" y="182"/>
      <point x="838" y="277" type="curve" smooth="yes"/>
      <point x="881" y="366"/>
      <point x="905" y="502"/>
      <point x="905" y="755" type="curve" smooth="yes"/>
      <point x="905" y="888"/>
      <point x="898" y="976"/>
      <point x="885" y="1036" type="curve"/>
      <point x="371" y="303" type="line" name="hr01"/>
      <point x="414" y="195"/>
      <point x="503" y="135"/>
    </contour>
  </outline>
</glyph>
<glyph name="uni0218" format="1">
  <advance width="1233"/>
  <unicode hex="0218"/>
  <outline>
    <contour>
      <point x="586" y="-29" type="curve" smooth="yes" name="dv03"/>
      <point x="439" y="-29"/>
      <point x="302" y="1" name="ih01"/>
      <point x="158" y="61" type="curve" name="dv04"/>
      <point x="158" y="276" type="line" name="ah02"/>
      <point x="311" y="179"/>
      <point x="442" y="135"/>
      <point x="583" y="135" type="curve" smooth="yes" name="sh01"/>
      <point x="787" y="135" name="at01"/>
      <point x="905" y="225"/>
      <point x="905" y="405" type="curve" smooth="yes" name="ih02"/>
      <point x="905" y="539" name="sv01"/>
      <point x="839" y="611" name="sh02"/>
      <point x="643" y="657" type="curve" smooth="yes"/>
      <point x="535" y="682" type="line" smooth="yes"/>
      <point x="255" y="746" name="sh03"/>
      <point x="139" y="869"/>
      <point x="139" y="1077" type="curve" smooth="yes" name="dv02"/>
      <point x="139" y="1346" name="ih03"/>
      <point x="334" y="1520" name="dv01"/>
      <point x="631" y="1520" type="curve" smooth="yes" name="ih04"/>
      <point x="745" y="1520" name="ah01"/>
      <point x="872" y="1494" name="sh04"/>
      <point x="1012" y="1442" type="curve"/>
      <point x="1012" y="1237" type="line"/>
      <point x="889" y="1316"/>
      <point x="765" y="1356"/>
      <point x="640" y="1356" type="curve" smooth="yes"/>
      <point x="451" y="1356"/>
      <point x="332" y="1265"/>
      <point x="332" y="1101" type="curve" smooth="yes"/>
      <point x="332" y="982"/>
      <point x="395" y="915"/>
      <point x="590" y="872" type="curve" smooth="yes"/>
      <point x="696" y="848" type="line" smooth="yes"/>
      <point x="979" y="784"/>
      <point x="1098" y="644"/>
      <point x="1098" y="411" type="curve" smooth="yes"/>
      <point x="1098" y="124"/>
      <point x="917" y="-29"/>
    </contour>
    <contour>
      <point x="502" y="-197" type="line"/>
      <point x="741" y="-197" type="line"/>
      <point x="554" y="-542" type="line"/>
      <point x="408" y="-542" type="line"/>
    </contour>
  </outline>
</glyph>
<glyph name="Phi" format="1">
  <advance width="1233"/>
  <unicode hex="03A6"/>
  <outline>
    <contour>
      <point x="368" y="170" type="line" name="dh03"/>
      <point x="515" y="170" type="line" name="ih01"/>
      <point x="515" y="286" type="line"/>
      <point x="279" y="310" name="dh01"/>
      <point x="118" y="433" name="sh01"/>
      <point x="118" y="745" type="curve" smooth="yes" name="sv01"/>
      <point x="118" y="1057" name="sh02"/>
      <point x="280" y="1181" name="at01"/>
      <point x="515" y="1205" type="curve" name="sh03"/>
      <point x="515" y="1323" type="line" name="sv02"/>
      <point x="368" y="1323" type="line" name="sh05"/>
      <point x="368" y="1493" type="line"/>
      <point x="865" y="1493" type="line" name="dh06"/>
      <point x="865" y="1323" type="line"/>
      <point x="718" y="1323" type="line" name="sh04"/>
      <point x="718" y="1205" type="line" name="dh04"/>
      <point x="953" y="1181" name="ab01"/>
      <point x="1115" y="1057"/>
      <point x="1115" y="745" type="curve" smooth="yes" name="sh06"/>
      <point x="1115" y="433"/>
      <point x="954" y="310" name="dh02"/>
      <point x="718" y="286" type="curve" name="hr02"/>
      <point x="718" y="170" type="line"/>
      <point x="865" y="170" type="line" name="sh07"/>
      <point x="865" y="0" type="line"/>
      <point x="368" y="0" type="line" name="dh05"/>
    </contour>
    <contour>
      <point x="515" y="1029" type="line" name="hr03"/>
      <point x="464" y="1018"/>
      <point x="424" y="998"/>
      <point x="397" y="971" type="curve" smooth="yes" name="sh08"/>
      <point x="352" y="926"/>
      <point x="329" y="850"/>
      <point x="329" y="745" type="curve" smooth="yes"/>
      <point x="329" y="640"/>
      <point x="352" y="565"/>
      <point x="397" y="520" type="curve" smooth="yes"/>
      <point x="424" y="492"/>
      <point x="464" y="473"/>
      <point x="515" y="462" type="curve" name="hr04"/>
    </contour>
    <contour>
      <point x="718" y="462" type="line"/>
      <point x="774" y="474"/>
      <point x="814" y="497"/>
      <point x="837" y="520" type="curve" smooth="yes"/>
      <point x="882" y="565"/>
      <point x="904" y="640"/>
      <point x="904" y="745" type="curve" smooth="yes"/>
      <point x="904" y="851"/>
      <point x="882" y="926"/>
      <point x="837" y="971" type="curve" smooth="yes"/>
      <point x="810" y="998"/>
      <point x="770" y="1018"/>
      <point x="718" y="1029" type="curve" name="hr05"/>
    </contour>
  </outline>
</glyph>
<glyph name="alpha" format="1">
  <advance width="1233"/>
  <unicode hex="03B1"/>
  <outline>
    <contour>
      <point x="508" y="-25" type="curve" smooth="yes" name="ab01"/>
      <point x="239" y="-25" name="dh01"/>
      <point x="70" y="188" name="at02"/>
      <point x="70" y="552" type="curve" smooth="yes" name="iv01"/>
      <point x="70" y="960" name="at01"/>
      <point x="280" y="1145" name="iv02"/>
      <point x="520" y="1145" type="curve" smooth="yes"/>
      <point x="702" y="1145"/>
      <point x="831" y="1039" name="sv02"/>
      <point x="869" y="827" type="curve"/>
      <point x="968" y="1120" type="line" name="ab02"/>
      <point x="1132" y="1120" type="line"/>
      <point x="927" y="513" type="line" name="iv03"/>
      <point x="967" y="294" type="line"/>
      <point x="978" y="229" name="sv03"/>
      <point x="1042" y="156"/>
      <point x="1084" y="156" type="curve" smooth="yes"/>
      <point x="1172" y="156" type="line"/>
      <point x="1172" y="0" type="line" name="sv01"/>
      <point x="1062" y="0" type="line" smooth="yes"/>
      <point x="936" y="0" name="dh02"/>
      <point x="850" y="97"/>
      <point x="826" y="214" type="curve"/>
      <point x="765" y="70"/>
      <point x="689" y="-25"/>
    </contour>
    <contour>
      <point x="504" y="127" type="curve" smooth="yes"/>
      <point x="588" y="127"/>
      <point x="657" y="197"/>
      <point x="705" y="340" type="curve" smooth="yes"/>
      <point x="766" y="521" type="line"/>
      <point x="722" y="752" type="line" smooth="yes"/>
      <point x="690" y="925"/>
      <point x="603" y="991"/>
      <point x="515" y="991" type="curve" smooth="yes"/>
      <point x="450" y="991"/>
      <point x="388" y="955"/>
      <point x="341" y="879" type="curve" smooth="yes" name="hr02"/>
      <point x="290" y="795"/>
      <point x="264" y="676"/>
      <point x="264" y="547" type="curve" smooth="yes"/>
      <point x="264" y="269"/>
      <point x="387" y="127"/>
    </contour>
  </outline>
</glyph>
<glyph name="beta" format="1">
  <advance width="1233"/>
  <unicode hex="03B2"/>
  <outline>
    <contour>
      <point x="152" y="1113" type="line" smooth="yes" name="dh01"/>
      <point x="152" y="1433" name="at01"/>
      <point x="361" y="1571" name="dh04"/>
      <point x="574" y="1571" type="curve" smooth="yes" name="ih01"/>
      <point x="774" y="1571" name="sh02"/>
      <point x="1012" y="1451" name="ab02"/>
      <point x="1012" y="1163" type="curve" smooth="yes" name="sh03"/>
      <point x="1012" y="1021" name="ab01"/>
      <point x="955" y="872"/>
      <point x="840" y="810" type="curve"/>
      <point x="1013" y="775" name="sv01"/>
      <point x="1123" y="600" name="sh01"/>
      <point x="1123" y="417" type="curve" smooth="yes" name="dv01"/>
      <point x="1123" y="165"/>
      <point x="918" y="-18" name="dv02"/>
      <point x="638" y="-21" type="curve" name="dh03"/>
      <point x="540" y="-21" name="sv02"/>
      <point x="459" y="0" name="dh02"/>
      <point x="337" y="69" type="curve" name="hr01"/>
      <point x="337" y="-426" type="line" name="sh04"/>
      <point x="152" y="-426" type="line"/>
    </contour>
    <contour>
      <point x="337" y="342" type="line"/>
      <point x="390" y="249"/>
      <point x="538" y="178"/>
      <point x="670" y="178" type="curve" smooth="yes"/>
      <point x="809" y="178"/>
      <point x="933" y="256"/>
      <point x="933" y="440" type="curve" smooth="yes"/>
      <point x="933" y="624"/>
      <point x="806" y="712"/>
      <point x="541" y="712" type="curve" smooth="yes"/>
      <point x="513" y="712"/>
      <point x="492" y="711"/>
      <point x="469" y="710" type="curve"/>
      <point x="469" y="880" type="line"/>
      <point x="705" y="872"/>
      <point x="832" y="988"/>
      <point x="832" y="1154" type="curve" smooth="yes" name="hr02"/>
      <point x="832" y="1327"/>
      <point x="693" y="1381"/>
      <point x="589" y="1381" type="curve" smooth="yes"/>
      <point x="462" y="1381"/>
      <point x="337" y="1302"/>
      <point x="337" y="1107" type="curve" smooth="yes"/>
    </contour>
  </outline>
</glyph>
<glyph name="epsilon" format="1">
  <advance width="1233"/>
  <unicode hex="03B5"/>
  <outline>
    <contour>
      <point x="693" y="-22" type="curve" smooth="yes" name="ab01"/>
      <point x="361" y="-22" name="sh01"/>
      <point x="169" y="110" name="iv01"/>
      <point x="169" y="321" type="curve" smooth="yes" name="sh02"/>
      <point x="169" y="480" name="dv02"/>
      <point x="277" y="575"/>
      <point x="449" y="607" type="curve"/>
      <point x="289" y="640" name="dv01"/>
      <point x="201" y="728" name="sh03"/>
      <point x="201" y="856" type="curve" smooth="yes"/>
      <point x="201" y="1034" name="dv04"/>
      <point x="375" y="1147" name="dv03"/>
      <point x="655" y="1147" type="curve" smooth="yes"/>
      <point x="760" y="1147" name="sh04"/>
      <point x="883" y="1131" name="sv01"/>
      <point x="1023" y="1099" type="curve"/>
      <point x="1023" y="932" type="line"/>
      <point x="883" y="968"/>
      <point x="770" y="984" name="ah01"/>
      <point x="674" y="984" type="curve" smooth="yes" name="sh05"/>
      <point x="485" y="984"/>
      <point x="384" y="922"/>
      <point x="384" y="830" type="curve" smooth="yes"/>
      <point x="384" y="739"/>
      <point x="482" y="676"/>
      <point x="663" y="676" type="curve" smooth="yes" name="hr01"/>
      <point x="829" y="676" type="line"/>
      <point x="829" y="532" type="line"/>
      <point x="670" y="532" type="line" smooth="yes"/>
      <point x="470" y="532"/>
      <point x="352" y="454"/>
      <point x="352" y="334" type="curve" smooth="yes"/>
      <point x="352" y="213"/>
      <point x="474" y="138"/>
      <point x="707" y="138" type="curve" smooth="yes"/>
      <point x="839" y="138"/>
      <point x="960" y="162"/>
      <point x="1064" y="207" type="curve"/>
      <point x="1064" y="34" type="line" name="hr02"/>
      <point x="935" y="-3"/>
      <point x="818" y="-22"/>
    </contour>
  </outline>
</glyph>
<glyph name="uni03BC" format="1">
  <advance width="1233"/>
  <unicode hex="03BC"/>
  <outline>
    <contour>
      <point x="195" y="1120" type="line" name="at01"/>
      <point x="379" y="1120" type="line"/>
      <point x="379" y="424" type="line" smooth="yes"/>
      <point x="379" y="233" name="dv02"/>
      <point x="461" y="131" name="ah02"/>
      <point x="610" y="131" type="curve" smooth="yes" name="at02"/>
      <point x="781" y="131"/>
      <point x="866" y="244" name="sh01"/>
      <point x="866" y="467" type="curve" smooth="yes" name="sv01"/>
      <point x="866" y="1120" type="line"/>
      <point x="1051" y="1120" type="line" name="iv01"/>
      <point x="1051" y="256" type="line" smooth="yes"/>
      <point x="1051" y="176" name="sh02"/>
      <point x="1072" y="141" name="ih01"/>
      <point x="1116" y="141" type="curve" smooth="yes" name="dv01"/>
      <point x="1121" y="141" name="sh04"/>
      <point x="1129" y="143" name="ab01"/>
      <point x="1140" y="146" type="curve" smooth="yes" name="sh03"/>
      <point x="1149" y="149" name="ah01"/>
      <point x="1163" y="155" name="sh05"/>
      <point x="1182" y="164" type="curve"/>
      <point x="1182" y="16" type="line"/>
      <point x="1131" y="-15"/>
      <point x="1087" y="-29"/>
      <point x="1042" y="-29" type="curve" smooth="yes"/>
      <point x="959" y="-29"/>
      <point x="909" y="24"/>
      <point x="893" y="129" type="curve"/>
      <point x="832" y="21"/>
      <point x="745" y="-29"/>
      <point x="625" y="-29" type="curve" smooth="yes"/>
      <point x="501" y="-29"/>
      <point x="422" y="19"/>
      <point x="362" y="127" type="curve"/>
      <point x="362" y="-428" type="line"/>
      <point x="195" y="-428" type="line"/>
    </contour>
  </outline>
</glyph>
<glyph name="phi" format="1">
  <advance width="1233"/>
  <unicode hex="03C6"/>
  <outline>
    <contour>
      <point x="525" y="-25" type="line" name="dh03"/>
      <point x="260" y="-25" name="dh01"/>
      <point x="76" y="186" name="at01"/>
      <point x="76" y="570" type="curve" smooth="yes" name="sh01"/>
      <point x="76" y="950"/>
      <point x="255" y="1093" name="dh02"/>
      <point x="460" y="1128" type="curve" name="sh02"/>
      <point x="460" y="965" type="line"/>
      <point x="417" y="948" name="at02"/>
      <point x="379" y="915" name="dh06"/>
      <point x="346" y="864" type="curve" smooth="yes" name="dh04"/>
      <point x="295" y="787" name="ab01"/>
      <point x="270" y="688"/>
      <point x="270" y="557" type="curve" smooth="yes" name="sh03"/>
      <point x="270" y="272" name="dh05"/>
      <point x="390" y="139"/>
      <point x="525" y="139" type="curve" name="sv01"/>
      <point x="525" y="826" type="line" smooth="yes" name="hr01"/>
      <point x="525" y="1029"/>
      <point x="612" y="1128" name="sh04"/>
      <point x="763" y="1128" type="curve" smooth="yes"/>
      <point x="959" y="1128"/>
      <point x="1157" y="953"/>
      <point x="1157" y="565" type="curve" smooth="yes"/>
      <point x="1157" y="181"/>
      <point x="965" y="-24"/>
      <point x="708" y="-24" type="curve"/>
      <point x="708" y="-426" type="line"/>
      <point x="525" y="-426" type="line"/>
    </contour>
    <contour>
      <point x="708" y="140" type="line"/>
      <point x="831" y="140"/>
      <point x="963" y="258"/>
      <point x="963" y="570" type="curve" smooth="yes" name="hr02"/>
      <point x="963" y="719"/>
      <point x="933" y="814"/>
      <point x="886" y="881" type="curve" smooth="yes"/>
      <point x="845" y="940"/>
      <point x="796" y="971"/>
      <point x="767" y="971" type="curve" smooth="yes"/>
      <point x="732" y="971"/>
      <point x="708" y="922"/>
      <point x="708" y="826" type="curve" smooth="yes"/>
    </contour>
  </outline>
</glyph>
<glyph name="uni040D" format="1">
  <advance width="1233"/>
  <unicode hex="040D"/>
  <outline>
    <contour>
      <point x="377" y="1851" type="line" name="ih01"/>
      <point x="561" y="1851" type="line"/>
      <point x="758" y="1587" type="line" name="ih02"/>
      <point x="604" y="1587" type="line"/>
    </contour>
    <contour>
      <point x="139" y="1493" type="line" name="sh01"/>
      <point x="334" y="1493" type="line" name="sh03"/>
      <point x="334" y="264" type="line" name="iv01"/>
      <point x="838" y="1493" type="line" name="at01"/>
      <point x="1094" y="1493" type="line"/>
      <point x="1094" y="0" type="line" name="sh02"/>
      <point x="899" y="0" type="line" name="ah01"/>
      <point x="899" y="1229" type="line" name="iv02"/>
      <point x="395" y="0" type="line" name="ab01"/>
      <point x="139" y="0" type="line"/>
    </contour>
  </outline>
</glyph>
<glyph name="uni0419" format="1">
  <advance width="1233"/>
  <unicode hex="0419"/>
  <outline>
    <contour>
      <point x="616" y="1609" type="curve" smooth="yes" name="dv01"/>
      <point x="423" y="1609"/>
      <point x="318" y="1690" name="sv01"/>
      <point x="303" y="1851" type="curve" name="dv02"/>
      <point x="422" y="1851" type="line" name="sv02"/>
      <point x="438" y="1779"/>
      <point x="507" y="1740"/>
      <point x="616" y="1740" type="curve" smooth="yes" name="sh01"/>
      <point x="726" y="1740" name="sh02"/>
      <point x="791" y="1777" name="iv01"/>
      <point x="811" y="1851" type="curve" name="at01"/>
      <point x="930" y="1851" type="line"/>
      <point x="915" y="1691" name="sh03"/>
      <point x="809" y="1609" name="ah02"/>
    </contour>
    <contour>
      <point x="139" y="1493" type="line" name="ab01"/>
      <point x="334" y="1493" type="line"/>
      <point x="334" y="264" type="line" name="ah01"/>
      <point x="838" y="1493" type="line" name="sh04"/>
      <point x="1094" y="1493" type="line"/>
      <point x="1094" y="0" type="line"/>
      <point x="899" y="0" type="line" name="hr01"/>
      <point x="899" y="1229" type="line" name="hr02"/>
      <point x="395" y="0" type="line"/>
      <point x="139" y="0" type="line"/>
    </contour>
  </outline>
</glyph>
<glyph name="uni041D" format="1">
  <advance width="1233"/>
  <unicode hex="041D"/>
  <outline>
    <contour>
      <point x="137" y="1493" type="line" name="sh01"/>
      <point x="340" y="1493" type="line" name="sh02"/>
      <point x="340" y="881" type="line"/>
      <point x="893" y="881" type="line" name="dv02"/>
      <point x="893" y="1493" type="line" name="ah01"/>
      <point x="1096" y="1493" type="line" name="sh03"/>
      <point x="1096" y="0" type="line" name="ab01"/>
      <point x="893" y="0" type="line" name="sh04"/>
      <point x="893" y="711" type="line" name="dv01"/>
      <point x="340" y="711" type="line" name="sh05"/>
      <point x="340" y="0" type="line" name="ab02"/>
      <point x="137" y="0" type="line"/>
    </contour>
  </outline>
</glyph>
<glyph name="uni0434" format="1">
  <advance width="1233"/>
  <unicode hex="0434"/>
  <outline>
    <contour>
      <point x="105" y="150" type="line" name="dh01"/>
      <point x="172" y="150" type="line" smooth="yes" name="sv02"/>
      <point x="245" y="150" name="sh01"/>
      <point x="259" y="572" name="at01"/>
      <point x="259" y="704" type="curve" smooth="yes"/>
      <point x="259" y="1120" type="line" name="dh04"/>
      <point x="1007" y="1120" type="line" name="sv01"/>
      <point x="1007" y="150" type="line" name="sh02"/>
      <point x="1128" y="150" type="line" name="ih01"/>
      <point x="1128" y="-286" type="line" name="ab01"/>
      <point x="978" y="-286" type="line" name="dh02"/>
      <point x="978" y="0" type="line" name="sv03"/>
      <point x="255" y="0" type="line" name="hr01"/>
      <point x="255" y="-286" type="line" name="dh03"/>
      <point x="105" y="-286" type="line" name="sv04"/>
    </contour>
    <contour>
      <point x="822" y="150" type="line"/>
      <point x="822" y="970" type="line"/>
      <point x="442" y="970" type="line" name="sh03"/>
      <point x="442" y="700" type="line" smooth="yes"/>
      <point x="442" y="660"/>
      <point x="436" y="537" name="sv05"/>
      <point x="423" y="353" type="curve" smooth="yes"/>
      <point x="416" y="256" name="sh04"/>
      <point x="412" y="206"/>
      <point x="407" y="193" type="curve" smooth="yes"/>
      <point x="402" y="181"/>
      <point x="400" y="172"/>
      <point x="400" y="166" type="curve" smooth="yes"/>
      <point x="400" y="155"/>
      <point x="405" y="150"/>
      <point x="434" y="150" type="curve" smooth="yes"/>
    </contour>
  </outline>
</glyph>
<glyph name="uni0439" format="1">
  <advance width="1233"/>
  <unicode hex="0439"/>
  <outline>
    <contour>
      <point x="616" y="1272" type="curve" smooth="yes" name="sv01"/>
      <point x="423" y="1272" name="at01"/>
      <point x="318" y="1368"/>
      <point x="303" y="1559" type="curve" name="sv02"/>
      <point x="422" y="1559" type="line" name="at02"/>
      <point x="437" y="1463"/>
      <point x="494" y="1409"/>
      <point x="615" y="1409" type="curve" smooth="yes" name="sh01"/>
      <point x="730" y="1409" name="sh02"/>
      <point x="792" y="1458" name="iv01"/>
      <point x="811" y="1559" type="curve" name="ah02"/>
      <point x="930" y="1559" type="line" name="sh03"/>
      <point x="915" y="1368" name="ab01"/>
      <point x="810" y="1272" name="sh04"/>
    </contour>
    <contour>
      <point x="195" y="1120" type="line" name="sh05"/>
      <point x="379" y="1120" type="line"/>
      <point x="379" y="311" type="line" name="ah01"/>
      <point x="866" y="1120" type="line" name="sh06"/>
      <point x="1050" y="1120" type="line"/>
      <point x="1050" y="0" type="line"/>
      <point x="866" y="0" type="line" name="hr01"/>
      <point x="866" y="809" type="line" name="hr02"/>
      <point x="379" y="0" type="line"/>
      <point x="195" y="0" type="line"/>
    </contour>
  </outline>
</glyph>
<glyph name="uni043B" format="1">
  <advance width="1233"/>
  <unicode hex="043B"/>
  <outline>
    <contour>
      <point x="50" y="150" type="line" name="sv01"/>
      <point x="85" y="150" type="line" smooth="yes"/>
      <point x="205" y="150" name="sh02"/>
      <point x="259" y="226" name="sh01"/>
      <point x="275" y="408" type="curve" name="at01"/>
      <point x="280" y="477"/>
      <point x="285" y="604" name="sh03"/>
      <point x="285" y="722" type="curve" smooth="yes" name="ah02"/>
      <point x="285" y="1120" type="line" name="sv02"/>
      <point x="1070" y="1120" type="line"/>
      <point x="1070" y="0" type="line" name="sh04"/>
      <point x="886" y="0" type="line"/>
      <point x="886" y="970" type="line" name="ab01"/>
      <point x="469" y="970" type="line"/>
      <point x="469" y="725" type="line" smooth="yes" name="ah01"/>
      <point x="469" y="512" name="sh05"/>
      <point x="469" y="262"/>
      <point x="367" y="117" type="curve" smooth="yes"/>
      <point x="312" y="40"/>
      <point x="236" y="0"/>
      <point x="105" y="0" type="curve" smooth="yes"/>
      <point x="50" y="0" type="line"/>
    </contour>
  </outline>
</glyph>
<glyph name="uni044C" format="1">
  <advance width="1233"/>
  <unicode hex="044C"/>
  <outline>
    <contour>
      <point x="225" y="1120" type="line" name="sh01"/>
      <point x="409" y="1120" type="line" name="sh02"/>
      <point x="409" y="667" type="line"/>
      <point x="665" y="667" type="line" smooth="yes" name="dv02"/>
      <point x="942" y="667" name="sh03"/>
      <point x="1110" y="558" name="ab01"/>
      <point x="1110" y="330" type="curve" smooth="yes"/>
      <point x="1110" y="109" name="sv01"/>
      <point x="950" y="0" name="ah02"/>
      <point x="665" y="0" type="curve" smooth="yes" name="dv01"/>
      <point x="225" y="0" type="line" name="sh04"/>
    </contour>
    <contour>
      <point x="657" y="153" type="line" smooth="yes"/>
      <point x="828" y="153" name="ah01"/>
      <point x="914" y="213" name="sh05"/>
      <point x="914" y="333" type="curve" smooth="yes"/>
      <point x="914" y="458"/>
      <point x="828" y="514"/>
      <point x="657" y="514" type="curve" smooth="yes"/>
      <point x="409" y="514" type="line"/>
      <point x="409" y="153" type="line"/>
    </contour>
  </outline>
</glyph>
<glyph name="uni044D" format="1">
  <advance width="1233"/>
  <unicode hex="044D"/>
  <outline>
    <contour>
      <point x="545" y="-29" type="curve" smooth="yes" name="dv01"/>
      <point x="432" y="-29"/>
      <point x="333" y="-4"/>
      <point x="225" y="57" type="curve" name="dv02"/>
      <point x="225" y="248" type="line" name="dh01"/>
      <point x="308" y="168"/>
      <point x="408" y="127"/>
      <point x="533" y="127" type="curve" smooth="yes" name="sh01"/>
      <point x="773" y="127" name="dv03"/>
      <point x="883" y="283"/>
      <point x="896" y="516" type="curve"/>
      <point x="354" y="516" type="line" name="dv04"/>
      <point x="354" y="660" type="line" name="dh02"/>
      <point x="891" y="660" type="line"/>
      <point x="867" y="836"/>
      <point x="775" y="991" name="sh02"/>
      <point x="534" y="991" type="curve" smooth="yes"/>
      <point x="413" y="991"/>
      <point x="318" y="952"/>
      <point x="225" y="868" type="curve"/>
      <point x="225" y="1061" type="line"/>
      <point x="334" y="1122"/>
      <point x="432" y="1147"/>
      <point x="544" y="1147" type="curve" smooth="yes"/>
      <point x="882" y="1147"/>
      <point x="1091" y="927"/>
      <point x="1091" y="559" type="curve" smooth="yes"/>
      <point x="1091" y="191"/>
      <point x="881" y="-29"/>
    </contour>
  </outline>
</glyph>
<glyph name="uni044F" format="1">
  <advance width="1233"/>
  <unicode hex="044F"/>
  <outline>
    <contour>
      <point x="450" y="479" type="line" name="hr00"/>
      <point x="383" y="506" name="sh01"/>
      <point x="227" y="576" name="at01"/>
      <point x="227" y="795" type="curve" smooth="yes"/>
      <point x="227" y="1024" name="sh02"/>
      <point x="397" y="1120" name="ah02"/>
      <point x="597" y="1120" type="curve" smooth="yes" name="dv01"/>
      <point x="994" y="1120" type="line"/>
      <point x="994" y="0" type="line" name="ab01"/>
      <point x="810" y="0" type="line"/>
      <point x="810" y="455" type="line" name="sh03"/>
      <point x="617" y="455" type="line" name="sv01"/>
      <point x="359" y="0" type="line"/>
      <point x="178" y="0" type="line" name="sh04"/>
    </contour>
    <contour>
      <point x="810" y="605" type="line"/>
      <point x="810" y="970" type="line" name="ah01"/>
      <point x="583" y="970" type="line" smooth="yes" name="sh05"/>
      <point x="508" y="970"/>
      <point x="413" y="916"/>
      <point x="413" y="787" type="curve" smooth="yes"/>
      <point x="413" y="659"/>
      <point x="509" y="605"/>
      <point x="582" y="605" type="curve" smooth="yes"/>
    </contour>
  </outline>
</glyph>
<glyph name="uni0452" format="1">
  <advance width="1233"/>
  <unicode hex="0452"/>
  <outline>
    <contour>
      <point x="661" y="-261" type="line" name="dh03"/>
      <point x="821" y="-232" name="sh01"/>
      <point x="955" y="-35" name="dv01"/>
      <point x="955" y="304" type="curve" smooth="yes"/>
      <point x="955" y="507" name="dh02"/>
      <point x="906" y="615" name="dh01"/>
      <point x="731" y="615" type="curve" smooth="yes" name="sv01"/>
      <point x="539" y="615" name="sv02"/>
      <point x="449" y="490" name="at02"/>
      <point x="449" y="261" type="curve" smooth="yes" name="sh02"/>
      <point x="449" y="0" type="line" name="at01"/>
      <point x="265" y="0" type="line" name="sh03"/>
      <point x="265" y="977" type="line" name="at03"/>
      <point x="75" y="977" type="line"/>
      <point x="75" y="1120" type="line" name="sv03"/>
      <point x="265" y="1120" type="line" name="sh04"/>
      <point x="265" y="1556" type="line" name="ih01"/>
      <point x="449" y="1556" type="line" name="dv02"/>
      <point x="449" y="1120" type="line" name="dh04"/>
      <point x="897" y="1120" type="line" name="ab01"/>
      <point x="897" y="977" type="line"/>
      <point x="449" y="977" type="line" name="sh05"/>
      <point x="449" y="580" type="line"/>
      <point x="514" y="709"/>
      <point x="625" y="775"/>
      <point x="788" y="775" type="curve" smooth="yes"/>
      <point x="1036" y="775"/>
      <point x="1148" y="617"/>
      <point x="1148" y="296" type="curve" smooth="yes"/>
      <point x="1148" y="-94"/>
      <point x="983" y="-368"/>
      <point x="661" y="-426" type="curve" name="hr01"/>
    </contour>
  </outline>
</glyph>
<glyph name="uni045D" format="1">
  <advance width="1233"/>
  <unicode hex="045D"/>
  <outline>
    <contour>
      <point x="343" y="1647" type="line" name="ih01"/>
      <point x="541" y="1647" type="line"/>
      <point x="822" y="1271" type="line" name="ih02"/>
      <point x="668" y="1271" type="line"/>
    </contour>
    <contour>
      <point x="195" y="1120" type="line" name="sh01"/>
      <point x="379" y="1120" type="line" name="sh02"/>
      <point x="379" y="311" type="line" name="iv01"/>
      <point x="866" y="1120" type="line" name="ah01"/>
      <point x="1050" y="1120" type="line" name="sh03"/>
      <point x="1050" y="0" type="line" name="ab01"/>
      <point x="866" y="0" type="line" name="sh04"/>
      <point x="866" y="809" type="line" name="ih03"/>
      <point x="379" y="0" type="line" name="sh05"/>
      <point x="195" y="0" type="line"/>
    </contour>
  </outline>
</glyph>
<glyph name="uni04B0" format="1">
  <advance width="1233"/>
  <unicode hex="04B0"/>
  <outline>
    <contour>
      <point x="514" y="420" type="line" name="dh01"/>
      <point x="250" y="420" type="line"/>
      <point x="250" y="590" type="line"/>
      <point x="514" y="590" type="line" name="sh01"/>
      <point x="514" y="670" type="line"/>
      <point x="37" y="1493" type="line" name="at01"/>
      <point x="252" y="1493" type="line"/>
      <point x="616" y="834" type="line" name="ih01"/>
      <point x="979" y="1493" type="line" name="at02"/>
      <point x="1196" y="1493" type="line"/>
      <point x="717" y="670" type="line" name="sh02"/>
      <point x="717" y="590" type="line"/>
      <point x="983" y="590" type="line"/>
      <point x="983" y="420" type="line"/>
      <point x="717" y="420" type="line" name="dh02"/>
      <point x="717" y="0" type="line" name="ab01"/>
      <point x="514" y="0" type="line"/>
    </contour>
  </outline>
</glyph>
<glyph name="uni04E4" format="1">
  <advance width="1233"/>
  <unicode hex="04E4"/>
  <outline>
    <contour>
      <point x="349" y="1649" type="line" smooth="yes" name="dv01"/>
      <point x="329" y="1649" name="ih01"/>
      <point x="319" y="1659"/>
      <point x="319" y="1679" type="curve" smooth="yes" name="dv02"/>
      <point x="319" y="1822" type="line" smooth="yes"/>
      <point x="319" y="1842"/>
      <point x="329" y="1852" name="sh01"/>
      <point x="349" y="1852" type="curve" smooth="yes"/>
      <point x="492" y="1852" type="line" smooth="yes" name="sv01"/>
      <point x="512" y="1852" name="dh03"/>
      <point x="522" y="1842"/>
      <point x="522" y="1822" type="curve" smooth="yes" name="sv02"/>
      <point x="522" y="1679" type="line" smooth="yes"/>
      <point x="522" y="1659"/>
      <point x="512" y="1649" name="dh04"/>
      <point x="492" y="1649" type="curve" smooth="yes"/>
    </contour>
    <contour>
      <point x="741" y="1649" type="line" smooth="yes" name="dh01"/>
      <point x="721" y="1649" name="dh02"/>
      <point x="711" y="1659" name="iv01"/>
      <point x="711" y="1679" type="curve" smooth="yes" name="at01"/>
      <point x="711" y="1822" type="line" smooth="yes"/>
      <point x="711" y="1842" name="sh02"/>
      <point x="721" y="1852" name="sh03"/>
      <point x="741" y="1852" type="curve" smooth="yes" name="ih02"/>
      <point x="883" y="1852" type="line" smooth="yes" name="ab01"/>
      <point x="903" y="1852"/>
      <point x="913" y="1842"/>
      <point x="913" y="1822" type="curve" smooth="yes"/>
      <point x="913" y="1679" type="line" smooth="yes"/>
      <point x="913" y="1659"/>
      <point x="903" y="1649"/>
      <point x="883" y="1649" type="curve" smooth="yes"/>
    </contour>
    <contour>
      <point x="139" y="1493" type="line"/>
      <point x="334" y="1493" type="line"/>
      <point x="334" y="264" type="line"/>
      <point x="838" y="1493" type="line"/>
      <point x="1094" y="1493" type="line"/>
      <point x="1094" y="0" type="line"/>
      <point x="899" y="0" type="line"/>
      <point x="899" y="1229" type="line"/>
      <point x="395" y="0" type="line"/>
      <point x="139" y="0" type="line"/>
    </contour>
  </outline>
</glyph>
<glyph name="uni04E6" format="1">
  <advance width="1233"/>
  <unicode hex="04E6"/>
  <outline>
    <contour>
      <point x="349" y="1649" type="line" smooth="yes" name="dv03"/>
      <point x="329" y="1649" name="sh01"/>
      <point x="319" y="1659"/>
      <point x="319" y="1679" type="curve" smooth="yes" name="dv04"/>
      <point x="319" y="1822" type="line" smooth="yes"/>
      <point x="319" y="1842"/>
      <point x="329" y="1852" name="sh02"/>
      <point x="349" y="1852" type="curve" smooth="yes"/>
      <point x="492" y="1852" type="line" smooth="yes" name="sv01"/>
      <point x="512" y="1852" name="dh03"/>
      <point x="522" y="1842"/>
      <point x="522" y="1822" type="curve" smooth="yes" name="sv02"/>
      <point x="522" y="1679" type="line" smooth="yes"/>
      <point x="522" y="1659"/>
      <point x="512" y="1649" name="dh04"/>
      <point x="492" y="1649" type="curve" smooth="yes"/>
    </contour>
    <contour>
      <point x="741" y="1649" type="line" smooth="yes" name="dv01"/>
      <point x="721" y="1649" name="dh01"/>
      <point x="711" y="1659" name="at01"/>
      <point x="711" y="1679" type="curve" smooth="yes" name="sh03"/>
      <point x="711" y="1822" type="line" smooth="yes"/>
      <point x="711" y="1842" name="dv02"/>
      <point x="721" y="1852"/>
      <point x="741" y="1852" type="curve" smooth="yes" name="sh04"/>
      <point x="883" y="1852" type="line" smooth="yes"/>
      <point x="903" y="1852" name="sv03"/>
      <point x="913" y="1842"/>
      <point x="913" y="1822" type="curve" smooth="yes" name="dh02"/>
      <point x="913" y="1679" type="line" smooth="yes"/>
      <point x="913" y="1659"/>
      <point x="903" y="1649"/>
      <point x="883" y="1649" type="curve" smooth="yes" name="hr01"/>
    </contour>
    <contour>
      <point x="615" y="-29" type="curve" smooth="yes"/>
      <point x="280" y="-29"/>
      <point x="117" y="221"/>
      <point x="117" y="744" type="curve" smooth="yes"/>
      <point x="117" y="1267"/>
      <point x="280" y="1520"/>
      <point x="616" y="1520" type="curve" smooth="yes"/>
      <point x="953" y="1520"/>
      <point x="1116" y="1266"/>
      <point x="1116" y="745" type="curve" smooth="yes"/>
      <point x="1116" y="225"/>
      <point x="952" y="-29"/>
    </contour>
    <contour>
      <point x="616" y="135" type="curve" smooth="yes"/>
      <point x="719" y="135"/>
      <point x="793" y="182"/>
      <point x="838" y="276" type="curve" smooth="yes"/>
      <point x="883" y="368"/>
      <point x="905" y="524"/>
      <point x="905" y="745" type="curve" smooth="yes"/>
      <point x="905" y="965"/>
      <point x="883" y="1122"/>
      <point x="838" y="1215" type="curve" smooth="yes"/>
      <point x="793" y="1309"/>
      <point x="719" y="1356"/>
      <point x="616" y="1356" type="curve" smooth="yes"/>
      <point x="514" y="1356"/>
      <point x="441" y="1309"/>
      <point x="396" y="1215" type="curve" smooth="yes"/>
      <point x="351" y="1120"/>
      <point x="328" y="964"/>
      <point x="328" y="745" type="curve" smooth="yes"/>
      <point x="328" y="527"/>
      <point x="351" y="371"/>
      <point x="396" y="276" type="curve" smooth="yes"/>
      <point x="441" y="182"/>
      <point x="514" y="135"/>
    </contour>
  </outline>
</glyph>
<glyph name="uni04F5" format="1">
  <advance width="1233"/>
  <unicode hex="04F5"/>
  <outline>
    <contour>
      <point x="359" y="1323" type="line" smooth="yes" name="dv01"/>
      <point x="339" y="1323" name="ih01"/>
      <point x="329" y="1333"/>
      <point x="329" y="1353" type="curve" smooth="yes" name="dv02"/>
      <point x="329" y="1495" type="line" smooth="yes"/>
      <point x="329" y="1515"/>
      <point x="339" y="1525" name="sh01"/>
      <point x="359" y="1525" type="curve" smooth="yes"/>
      <point x="502" y="1525" type="line" smooth="yes" name="sv01"/>
      <point x="522" y="1525" name="dh03"/>
      <point x="532" y="1515"/>
      <point x="532" y="1495" type="curve" smooth="yes" name="sv02"/>
      <point x="532" y="1353" type="line" smooth="yes"/>
      <point x="532" y="1333"/>
      <point x="522" y="1323" name="dh04"/>
      <point x="502" y="1323" type="curve" smooth="yes"/>
    </contour>
    <contour>
      <point x="751" y="1323" type="line" smooth="yes" name="ih02"/>
      <point x="731" y="1323" name="dv03"/>
      <point x="721" y="1333" name="dh01"/>
      <point x="721" y="1353" type="curve" smooth="yes" name="at01"/>
      <point x="721" y="1495" type="line" smooth="yes"/>
      <point x="721" y="1515" name="dh02"/>
      <point x="731" y="1525" name="dv04"/>
      <point x="751" y="1525" type="curve" smooth="yes" name="sh02"/>
      <point x="893" y="1525" type="line" smooth="yes" name="at02"/>
      <point x="913" y="1525"/>
      <point x="923" y="1515" name="sh03"/>
      <point x="923" y="1495" type="curve" smooth="yes" name="ih03"/>
      <point x="923" y="1353" type="line" smooth="yes"/>
      <point x="923" y="1333" name="sh04"/>
      <point x="913" y="1323"/>
      <point x="893" y="1323" type="curve" smooth="yes"/>
    </contour>
    <contour>
      <point x="837" y="466" type="line"/>
      <point x="816" y="458"/>
      <point x="700" y="402"/>
      <point x="531" y="402" type="curve" smooth="yes"/>
      <point x="306" y="402"/>
      <point x="165" y="502"/>
      <point x="165" y="755" type="curve" smooth="yes"/>
      <point x="165" y="1122" type="line"/>
      <point x="349" y="1122" type="line"/>
      <point x="349" y="755" type="line" smooth="yes"/>
      <point x="349" y="584"/>
      <point x="458" y="562"/>
      <point x="590" y="562" type="curve" smooth="yes"/>
      <point x="689" y="562"/>
      <point x="756" y="575"/>
      <point x="837" y="621" type="curve"/>
      <point x="837" y="1122" type="line"/>
      <point x="1021" y="1122" type="line"/>
      <point x="1021" y="0" type="line"/>
      <point x="837" y="0" type="line"/>
    </contour>
  </outline>
</glyph>
<glyph name="uni053E" format="1">
  <advance width="1233"/>
  <unicode hex="053E"/>
  <outline>
    <contour>
      <point x="626" y="-29" type="curve" smooth="yes" name="dv01"/>
      <point x="416" y="-29"/>
      <point x="285" y="43" name="ih01"/>
      <point x="206" y="159" type="curve" smooth="yes" name="sv01"/>
      <point x="126" y="276" name="dh01"/>
      <point x="100" y="436" name="at02"/>
      <point x="100" y="611" type="curve" smooth="yes"/>
      <point x="100" y="796" name="dh02"/>
      <point x="131" y="942"/>
      <point x="192" y="1081" type="curve"/>
      <point x="54" y="1081" type="line" name="at01"/>
      <point x="54" y="1493" type="line" name="at03"/>
      <point x="237" y="1493" type="line" name="sh01"/>
      <point x="237" y="1248" type="line" name="ih02"/>
      <point x="289" y="1248" type="line" name="sv03"/>
      <point x="353" y="1333" name="ih03"/>
      <point x="429" y="1400"/>
      <point x="518" y="1448" type="curve" smooth="yes" name="dh04"/>
      <point x="606" y="1495"/>
      <point x="702" y="1520"/>
      <point x="829" y="1520" type="curve" smooth="yes"/>
      <point x="892" y="1520" name="dv02"/>
      <point x="956" y="1514"/>
      <point x="1011" y="1502" type="curve" smooth="yes"/>
      <point x="1067" y="1490" name="dh03"/>
      <point x="1118" y="1471"/>
      <point x="1174" y="1448" type="curve"/>
      <point x="1174" y="1233" type="line" name="sv02"/>
      <point x="1030" y="1326" name="sv04"/>
      <point x="909" y="1357" name="sh02"/>
      <point x="800" y="1357" type="curve" smooth="yes"/>
      <point x="675" y="1357"/>
      <point x="578" y="1316"/>
      <point x="502" y="1247" type="curve"/>
      <point x="726" y="1242"/>
      <point x="890" y="1182" name="sh03"/>
      <point x="1001" y="1079" type="curve" smooth="yes"/>
      <point x="1114" y="974"/>
      <point x="1178" y="818"/>
      <point x="1178" y="593" type="curve" smooth="yes"/>
      <point x="1178" y="484"/>
      <point x="1163" y="380"/>
      <point x="1130" y="291" type="curve" smooth="yes"/>
      <point x="1095" y="195"/>
      <point x="1039" y="116"/>
      <point x="960" y="61" type="curve" smooth="yes"/>
      <point x="876" y="2"/>
      <point x="767" y="-29"/>
    </contour>
    <contour>
      <point x="632" y="135" type="curve" smooth="yes"/>
      <point x="743" y="135"/>
      <point x="816" y="159"/>
      <point x="867" y="202" type="curve" smooth="yes"/>
      <point x="918" y="245"/>
      <point x="943" y="303"/>
      <point x="956" y="372" type="curve" smooth="yes"/>
      <point x="969" y="439"/>
      <point x="970" y="529"/>
      <point x="970" y="581" type="curve" smooth="yes"/>
      <point x="970" y="674"/>
      <point x="967" y="765"/>
      <point x="940" y="840" type="curve" smooth="yes"/>
      <point x="913" y="912"/>
      <point x="868" y="970"/>
      <point x="784" y="1013" type="curve" smooth="yes" name="hr01"/>
      <point x="699" y="1056"/>
      <point x="578" y="1081"/>
      <point x="399" y="1081" type="curve" smooth="yes"/>
      <point x="387" y="1081" type="line"/>
      <point x="330" y="952"/>
      <point x="307" y="793"/>
      <point x="307" y="621" type="curve" smooth="yes"/>
      <point x="307" y="585" type="line" smooth="yes"/>
      <point x="307" y="513"/>
      <point x="307" y="446"/>
      <point x="318" y="383" type="curve" smooth="yes" name="hr02"/>
      <point x="330" y="307"/>
      <point x="352" y="248"/>
      <point x="399" y="205" type="curve" smooth="yes"/>
      <point x="447" y="161"/>
      <point x="519" y="135"/>
    </contour>
  </outline>
</glyph>
<glyph name="uni0543" format="1">
  <advance width="1233"/>
  <unicode hex="0543"/>
  <outline>
    <contour>
      <point x="363" y="0" type="line" smooth="yes" name="ab01"/>
      <point x="288" y="0"/>
      <point x="218" y="14" name="dh01"/>
      <point x="165" y="54" type="curve" smooth="yes"/>
      <point x="116" y="91"/>
      <point x="86" y="147" name="ih01"/>
      <point x="86" y="238" type="curve" smooth="yes"/>
      <point x="86" y="352" name="iv01"/>
      <point x="135" y="481" name="at01"/>
      <point x="255" y="687" type="curve" smooth="yes" name="sv01"/>
      <point x="316" y="792"/>
      <point x="384" y="899"/>
      <point x="443" y="983" type="curve"/>
      <point x="150" y="1493" type="line" name="sv02"/>
      <point x="378" y="1493" type="line"/>
      <point x="572" y="1155" type="line"/>
      <point x="760" y="1388" name="dh02"/>
      <point x="942" y="1520"/>
      <point x="1146" y="1520" type="curve"/>
      <point x="1146" y="1345" type="line"/>
      <point x="1001" y="1345"/>
      <point x="843" y="1221"/>
      <point x="668" y="988" type="curve"/>
      <point x="1141" y="164" type="line" name="hr01"/>
      <point x="1141" y="0" type="line"/>
    </contour>
    <contour>
      <point x="909" y="175" type="line"/>
      <point x="544" y="808" type="line"/>
      <point x="505" y="748"/>
      <point x="468" y="686"/>
      <point x="429" y="618" type="curve" smooth="yes"/>
      <point x="341" y="465"/>
      <point x="302" y="366"/>
      <point x="302" y="295" type="curve" smooth="yes"/>
      <point x="302" y="203"/>
      <point x="370" y="175"/>
      <point x="491" y="175" type="curve" smooth="yes"/>
    </contour>
  </outline>
</glyph>
<glyph name="uni054C" format="1">
  <advance width="1233"/>
  <unicode hex="054C"/>
  <outline>
    <contour>
      <point x="98" y="1036" type="line" smooth="yes" name="dh01"/>
      <point x="98" y="1203"/>
      <point x="142" y="1322" name="at01"/>
      <point x="223" y="1402" type="curve" smooth="yes"/>
      <point x="303" y="1481" name="sh01"/>
      <point x="414" y="1520"/>
      <point x="566" y="1520" type="curve" smooth="yes" name="dv01"/>
      <point x="715" y="1520" name="sh02"/>
      <point x="831" y="1482"/>
      <point x="912" y="1402" type="curve" smooth="yes" name="dh04"/>
      <point x="992" y="1322" name="dh03"/>
      <point x="1036" y="1203"/>
      <point x="1036" y="1036" type="curve" smooth="yes"/>
      <point x="1036" y="621" type="line" name="sv01"/>
      <point x="1223" y="621" type="line"/>
      <point x="1223" y="451" type="line" name="dh02"/>
      <point x="1036" y="451" type="line" name="ab01"/>
      <point x="1036" y="0" type="line"/>
      <point x="834" y="0" type="line" name="hr01"/>
      <point x="834" y="1098" type="line" smooth="yes" name="sh03"/>
      <point x="834" y="1158"/>
      <point x="825" y="1220"/>
      <point x="786" y="1271" type="curve" smooth="yes" name="hr02"/>
      <point x="747" y="1322"/>
      <point x="681" y="1356"/>
      <point x="566" y="1356" type="curve" smooth="yes"/>
      <point x="451" y="1356"/>
      <point x="387" y="1322"/>
      <point x="348" y="1271" type="curve" smooth="yes"/>
      <point x="309" y="1220"/>
      <point x="300" y="1158"/>
      <point x="300" y="1098" type="curve" smooth="yes"/>
      <point x="300" y="0" type="line"/>
      <point x="98" y="0" type="line"/>
    </contour>
  </outline>
</glyph>
<glyph name="uni0556" format="1">
  <advance width="1233"/>
  <unicode hex="0556"/>
  <outline>
    <contour>
      <point x="628" y="-29" type="curve" smooth="yes" name="dv01"/>
      <point x="465" y="-29"/>
      <point x="359" y="-15"/>
      <point x="279" y="24" type="curve" smooth="yes" name="dh01"/>
      <point x="190" y="67"/>
      <point x="137" y="138"/>
      <point x="108" y="229" type="curve" smooth="yes" name="dh02"/>
      <point x="79" y="320"/>
      <point x="71" y="424" name="dh03"/>
      <point x="71" y="537" type="curve" smooth="yes" name="sv01"/>
      <point x="71" y="556" type="line" name="ih01"/>
      <point x="265" y="556" type="line"/>
      <point x="265" y="537" type="line" smooth="yes" name="at01"/>
      <point x="265" y="394" name="sh01"/>
      <point x="273" y="307" name="at02"/>
      <point x="307" y="241" type="curve" smooth="yes"/>
      <point x="342" y="173" name="dh06"/>
      <point x="403" y="133"/>
      <point x="518" y="133" type="curve"/>
      <point x="518" y="952" type="line" name="sv02"/>
      <point x="255" y="952"/>
      <point x="141" y="1038" name="sh02"/>
      <point x="141" y="1223" type="curve" smooth="yes"/>
      <point x="141" y="1315" name="sh03"/>
      <point x="168" y="1383"/>
      <point x="232" y="1428" type="curve" smooth="yes" name="at03"/>
      <point x="294" y="1471" name="dh04"/>
      <point x="393" y="1493"/>
      <point x="529" y="1493" type="curve" smooth="yes" name="dh05"/>
      <point x="711" y="1493" type="line"/>
      <point x="711" y="1120" type="line" name="sv03"/>
      <point x="894" y="1112"/>
      <point x="996" y="1063" name="sh04"/>
      <point x="1062" y="979" type="curve" smooth="yes"/>
      <point x="1138" y="880"/>
      <point x="1162" y="732"/>
      <point x="1162" y="540" type="curve" smooth="yes"/>
      <point x="1162" y="423"/>
      <point x="1153" y="318"/>
      <point x="1122" y="229" type="curve" smooth="yes"/>
      <point x="1091" y="142"/>
      <point x="1039" y="68"/>
      <point x="955" y="24" type="curve" smooth="yes"/>
      <point x="916" y="3"/>
      <point x="869" y="-11"/>
      <point x="814" y="-19" type="curve" smooth="yes"/>
      <point x="758" y="-27"/>
      <point x="689" y="-29"/>
    </contour>
    <contour>
      <point x="518" y="1329" type="line"/>
      <point x="454" y="1329"/>
      <point x="411" y="1326"/>
      <point x="383" y="1311" type="curve" smooth="yes"/>
      <point x="355" y="1296"/>
      <point x="342" y="1270"/>
      <point x="342" y="1223" type="curve" smooth="yes"/>
      <point x="342" y="1176"/>
      <point x="355" y="1152"/>
      <point x="383" y="1137" type="curve" smooth="yes" name="hr01"/>
      <point x="411" y="1122"/>
      <point x="454" y="1120"/>
      <point x="518" y="1120" type="curve"/>
    </contour>
    <contour>
      <point x="711" y="133" type="line"/>
      <point x="820" y="133"/>
      <point x="884" y="169"/>
      <point x="920" y="237" type="curve" smooth="yes"/>
      <point x="956" y="305"/>
      <point x="964" y="402"/>
      <point x="964" y="542" type="curve" smooth="yes"/>
      <point x="964" y="681"/>
      <point x="956" y="784"/>
      <point x="920" y="852" type="curve" smooth="yes"/>
      <point x="884" y="920"/>
      <point x="820" y="949"/>
      <point x="711" y="949" type="curve"/>
    </contour>
  </outline>
</glyph>
<glyph name="uni0564" format="1">
  <advance width="1233"/>
  <unicode hex="0564"/>
  <outline>
    <contour>
      <point x="855" y="694" type="line" smooth="yes" name="dh03"/>
      <point x="855" y="895" name="sv01"/>
      <point x="788" y="987"/>
      <point x="637" y="987" type="curve" smooth="yes" name="dh02"/>
      <point x="462" y="987" name="dh01"/>
      <point x="368" y="865" name="at01"/>
      <point x="368" y="633" type="curve" smooth="yes"/>
      <point x="368" y="0" type="line" name="sh01"/>
      <point x="184" y="0" type="line" name="sv02"/>
      <point x="184" y="1120" type="line" name="dh04"/>
      <point x="350" y="1120" type="line" name="sv03"/>
      <point x="368" y="952" type="line" name="sh02"/>
      <point x="433" y="1081" name="ab02"/>
      <point x="547" y="1147" name="sh03"/>
      <point x="700" y="1147" type="curve" smooth="yes" name="ab01"/>
      <point x="931" y="1147"/>
      <point x="1040" y="1001"/>
      <point x="1040" y="694" type="curve" smooth="yes" name="sh04"/>
      <point x="1040" y="143" type="line"/>
      <point x="1188" y="143" type="line"/>
      <point x="1188" y="0" type="line"/>
      <point x="1040" y="0" type="line"/>
      <point x="1040" y="-426" type="line"/>
      <point x="855" y="-426" type="line"/>
    </contour>
  </outline>
</glyph>
<glyph name="uni056F" format="1">
  <advance width="1233"/>
  <unicode hex="056F"/>
  <outline>
    <contour>
      <point x="859" y="168" type="line" name="iv01"/>
      <point x="794" y="39" name="dv01"/>
      <point x="682" y="-29" name="sh01"/>
      <point x="526" y="-29" type="curve" smooth="yes" name="at01"/>
      <point x="295" y="-29"/>
      <point x="188" y="119" name="sh02"/>
      <point x="188" y="424" type="curve" smooth="yes" name="dv02"/>
      <point x="188" y="1556" type="line" name="sh03"/>
      <point x="372" y="1556" type="line" name="at02"/>
      <point x="372" y="424" type="line" smooth="yes"/>
      <point x="372" y="223" name="sh04"/>
      <point x="442" y="131" name="ah02"/>
      <point x="591" y="131" type="curve" smooth="yes" name="ah01"/>
      <point x="767" y="131" name="sh05"/>
      <point x="859" y="254"/>
      <point x="859" y="485" type="curve" smooth="yes"/>
      <point x="859" y="1120" type="line"/>
      <point x="1044" y="1120" type="line"/>
      <point x="1044" y="-426" type="line"/>
      <point x="859" y="-426" type="line"/>
    </contour>
  </outline>
</glyph>
<glyph name="uni0573" format="1">
  <advance width="1233"/>
  <unicode hex="0573"/>
  <outline>
    <contour>
      <point x="553" y="-29" type="curve" smooth="yes" name="dv01"/>
      <point x="425" y="-29"/>
      <point x="340" y="17"/>
      <point x="280" y="92" type="curve" smooth="yes" name="sv01"/>
      <point x="219" y="168"/>
      <point x="189" y="263" name="at04"/>
      <point x="189" y="410" type="curve" smooth="yes"/>
      <point x="189" y="573"/>
      <point x="227" y="794" name="at01"/>
      <point x="299" y="977" type="curve" name="at02"/>
      <point x="154" y="977" type="line" name="at03"/>
      <point x="154" y="1120" type="line" name="ih01"/>
      <point x="364" y="1120" type="line" name="sv02"/>
      <point x="432" y="1245"/>
      <point x="514" y="1354" name="at05"/>
      <point x="614" y="1433" type="curve" smooth="yes"/>
      <point x="714" y="1512"/>
      <point x="831" y="1556" name="dh02"/>
      <point x="956" y="1556" type="curve" smooth="yes"/>
      <point x="974" y="1556" name="dh01"/>
      <point x="991" y="1555"/>
      <point x="1007" y="1553" type="curve"/>
      <point x="1022" y="1550" name="dv02"/>
      <point x="1033" y="1549"/>
      <point x="1044" y="1545" type="curve" name="sh01"/>
      <point x="1044" y="1394" type="line"/>
      <point x="1017" y="1406"/>
      <point x="977" y="1413" name="sv03"/>
      <point x="942" y="1413" type="curve" smooth="yes" name="hr01"/>
      <point x="866" y="1413"/>
      <point x="793" y="1380"/>
      <point x="732" y="1333" type="curve" smooth="yes"/>
      <point x="667" y="1282" name="sh02"/>
      <point x="601" y="1207"/>
      <point x="549" y="1116" type="curve"/>
      <point x="710" y="1103"/>
      <point x="838" y="1049"/>
      <point x="929" y="960" type="curve" smooth="yes"/>
      <point x="1020" y="871"/>
      <point x="1069" y="749"/>
      <point x="1069" y="596" type="curve" smooth="yes"/>
      <point x="1069" y="0" type="line"/>
      <point x="903" y="0" type="line"/>
      <point x="885" y="168" type="line"/>
      <point x="853" y="108"/>
      <point x="813" y="61"/>
      <point x="758" y="26" type="curve" smooth="yes"/>
      <point x="703" y="-9"/>
      <point x="637" y="-29"/>
    </contour>
    <contour>
      <point x="614" y="131" type="curve" smooth="yes"/>
      <point x="718" y="131"/>
      <point x="783" y="175"/>
      <point x="826" y="240" type="curve" smooth="yes"/>
      <point x="869" y="304"/>
      <point x="885" y="389"/>
      <point x="885" y="470" type="curve" smooth="yes"/>
      <point x="885" y="609" type="line" smooth="yes"/>
      <point x="885" y="710"/>
      <point x="856" y="798"/>
      <point x="791" y="862" type="curve" smooth="yes"/>
      <point x="726" y="926"/>
      <point x="624" y="966"/>
      <point x="479" y="975" type="curve"/>
      <point x="410" y="813"/>
      <point x="374" y="613"/>
      <point x="374" y="451" type="curve" smooth="yes"/>
      <point x="374" y="309"/>
      <point x="402" y="243"/>
      <point x="447" y="195" type="curve" smooth="yes"/>
      <point x="489" y="152"/>
      <point x="545" y="131"/>
    </contour>
  </outline>
</glyph>
<glyph name="uni10D2" format="1">
  <advance width="1233"/>
  <unicode hex="10D2"/>
  <outline>
    <contour>
      <point x="638" y="-425" type="curve" smooth="yes" name="ab01"/>
      <point x="273" y="-425" name="dh01"/>
      <point x="111" y="-197" name="dv04"/>
      <point x="111" y="31" type="curve" smooth="yes" name="dh03"/>
      <point x="111" y="266" name="dv01"/>
      <point x="283" y="504" name="sh01"/>
      <point x="651" y="509" type="curve"/>
      <point x="717" y="559"/>
      <point x="761" y="648" name="ih01"/>
      <point x="761" y="728" type="curve" smooth="yes" name="dv02"/>
      <point x="761" y="820" name="dh04"/>
      <point x="703" y="903"/>
      <point x="544" y="903" type="curve" smooth="yes"/>
      <point x="427" y="903" name="sh02"/>
      <point x="366" y="858"/>
      <point x="366" y="762" type="curve" smooth="yes" name="sv01"/>
      <point x="366" y="734" name="sh03"/>
      <point x="371" y="705" name="dv03"/>
      <point x="381" y="675" type="curve" name="dh02"/>
      <point x="244" y="593" type="line"/>
      <point x="213" y="644"/>
      <point x="198" y="707" name="sh04"/>
      <point x="198" y="775" type="curve" smooth="yes"/>
      <point x="198" y="958"/>
      <point x="309" y="1045"/>
      <point x="554" y="1045" type="curve" smooth="yes"/>
      <point x="811" y="1045"/>
      <point x="943" y="949"/>
      <point x="943" y="752" type="curve" smooth="yes"/>
      <point x="943" y="644"/>
      <point x="904" y="560"/>
      <point x="821" y="504" type="curve" name="hr01"/>
      <point x="821" y="484" type="line"/>
      <point x="1022" y="409"/>
      <point x="1121" y="269"/>
      <point x="1121" y="40" type="curve" smooth="yes"/>
      <point x="1121" y="-269"/>
      <point x="941" y="-425"/>
    </contour>
    <contour>
      <point x="616" y="-276" type="curve" smooth="yes"/>
      <point x="833" y="-276"/>
      <point x="943" y="-164"/>
      <point x="943" y="29" type="curve" smooth="yes"/>
      <point x="943" y="265"/>
      <point x="780" y="366"/>
      <point x="617" y="366" type="curve" smooth="yes"/>
      <point x="454" y="366"/>
      <point x="289" y="265"/>
      <point x="289" y="28" type="curve" smooth="yes" name="hr02"/>
      <point x="289" y="-164"/>
      <point x="397" y="-276"/>
    </contour>
  </outline>
</glyph>
<glyph name="uni10E0" format="1">
  <advance width="1233"/>
  <unicode hex="10E0"/>
  <outline>
    <contour>
      <point x="265" y="0" type="line" name="ab01"/>
      <point x="125" y="140" name="dh01"/>
      <point x="55" y="303"/>
      <point x="55" y="490" type="curve" smooth="yes" name="at01"/>
      <point x="55" y="593" type="line" smooth="yes"/>
      <point x="55" y="928" name="ih01"/>
      <point x="260" y="1393"/>
      <point x="824" y="1557" type="curve" name="sv01"/>
      <point x="849" y="1409" type="line"/>
      <point x="607" y="1354"/>
      <point x="414" y="1209" name="dv02"/>
      <point x="269" y="974" type="curve"/>
      <point x="293" y="974" type="line" name="dh06"/>
      <point x="379" y="1035" type="line" name="ab02"/>
      <point x="489" y="1035" name="ih02"/>
      <point x="568" y="1002" name="dh05"/>
      <point x="616" y="937" type="curve"/>
      <point x="631" y="937" type="line" name="dv01"/>
      <point x="678" y="1001"/>
      <point x="756" y="1035"/>
      <point x="861" y="1035" type="curve" smooth="yes" name="dh04"/>
      <point x="1073" y="1035" name="dh03"/>
      <point x="1178" y="891"/>
      <point x="1178" y="596" type="curve" smooth="yes" name="sv02"/>
      <point x="1178" y="454" type="line" smooth="yes"/>
      <point x="1178" y="291"/>
      <point x="1109" y="139" name="dh02"/>
      <point x="970" y="0" type="curve" name="ih03"/>
      <point x="773" y="0" type="line"/>
      <point x="917" y="123"/>
      <point x="989" y="257" name="sh01"/>
      <point x="989" y="403" type="curve" smooth="yes"/>
      <point x="989" y="596" type="line" smooth="yes"/>
      <point x="989" y="795"/>
      <point x="945" y="894"/>
      <point x="857" y="894" type="curve" smooth="yes"/>
      <point x="769" y="894" type="line" smooth="yes"/>
      <point x="726" y="894"/>
      <point x="704" y="838"/>
      <point x="704" y="727" type="curve" smooth="yes"/>
      <point x="704" y="410" type="line"/>
      <point x="544" y="410" type="line"/>
      <point x="545" y="727" type="line" smooth="yes"/>
      <point x="546" y="838"/>
      <point x="522" y="894"/>
      <point x="472" y="894" type="curve" smooth="yes"/>
      <point x="348" y="894" type="line" smooth="yes"/>
      <point x="279" y="894"/>
      <point x="245" y="796"/>
      <point x="245" y="601" type="curve" smooth="yes"/>
      <point x="245" y="436" type="line" smooth="yes"/>
      <point x="245" y="269"/>
      <point x="322" y="123"/>
      <point x="475" y="0" type="curve"/>
    </contour>
  </outline>
</glyph>
<glyph name="uni10E5" format="1">
  <advance width="1233"/>
  <unicode hex="10E5"/>
  <outline>
    <contour>
      <point x="598" y="-425" type="curve" smooth="yes" name="ab01"/>
      <point x="291" y="-425" name="dh01"/>
      <point x="130" y="-264"/>
      <point x="130" y="-20" type="curve" smooth="yes" name="ih01"/>
      <point x="130" y="89" name="dh02"/>
      <point x="162" y="151" name="sv01"/>
      <point x="264" y="232" type="curve"/>
      <point x="440" y="231" type="line" name="dh03"/>
      <point x="346" y="137" name="dv01"/>
      <point x="315" y="74" name="sh01"/>
      <point x="315" y="-17" type="curve" smooth="yes" name="ih03"/>
      <point x="315" y="-177"/>
      <point x="414" y="-283" name="ih02"/>
      <point x="598" y="-283" type="curve" smooth="yes" name="dv02"/>
      <point x="789" y="-283"/>
      <point x="868" y="-169" name="sh02"/>
      <point x="869" y="67" type="curve" smooth="yes" name="av01"/>
      <point x="870" y="363" type="line" smooth="yes"/>
      <point x="871" y="728" name="dh04"/>
      <point x="777" y="903"/>
      <point x="564" y="903" type="curve" smooth="yes"/>
      <point x="447" y="903" name="sh03"/>
      <point x="384" y="851"/>
      <point x="384" y="720" type="curve" smooth="yes"/>
      <point x="384" y="634"/>
      <point x="412" y="524"/>
      <point x="466" y="470" type="curve"/>
      <point x="287" y="470" type="line"/>
      <point x="238" y="546"/>
      <point x="217" y="643"/>
      <point x="217" y="734" type="curve" smooth="yes"/>
      <point x="217" y="959"/>
      <point x="348" y="1046"/>
      <point x="496" y="1046" type="curve" smooth="yes"/>
      <point x="634" y="1046"/>
      <point x="777" y="971"/>
      <point x="852" y="856" type="curve"/>
      <point x="869" y="856" type="line" name="hr01"/>
      <point x="870" y="1521" type="line"/>
      <point x="1043" y="1521" type="line"/>
      <point x="1043" y="67" type="line" smooth="yes"/>
      <point x="1043" y="-270"/>
      <point x="899" y="-425"/>
    </contour>
  </outline>
</glyph>
<glyph name="uni10EB" format="1">
  <advance width="1233"/>
  <unicode hex="10EB"/>
  <outline>
    <contour>
      <point x="593" y="0" type="curve" smooth="yes" name="ab01"/>
      <point x="286" y="0" name="sh01"/>
      <point x="138" y="168" name="dv02"/>
      <point x="138" y="515" type="curve" smooth="yes"/>
      <point x="138" y="867" name="ah02"/>
      <point x="287" y="1046" name="av01"/>
      <point x="594" y="1046" type="curve" smooth="yes"/>
      <point x="735" y="1046" name="sh02"/>
      <point x="824" y="1008"/>
      <point x="857" y="931" type="curve" name="sv01"/>
      <point x="877" y="931" type="line" name="sh03"/>
      <point x="877" y="1521" type="line" name="dv01"/>
      <point x="1055" y="1521" type="line" name="sh04"/>
      <point x="1055" y="517" type="line" smooth="yes"/>
      <point x="1055" y="170" name="ah01"/>
      <point x="905" y="0" name="sh05"/>
    </contour>
    <contour>
      <point x="592" y="145" type="curve" smooth="yes"/>
      <point x="777" y="145"/>
      <point x="869" y="270"/>
      <point x="869" y="521" type="curve" smooth="yes"/>
      <point x="869" y="777"/>
      <point x="774" y="903"/>
      <point x="595" y="903" type="curve" smooth="yes"/>
      <point x="412" y="903"/>
      <point x="325" y="772"/>
      <point x="325" y="516" type="curve" smooth="yes"/>
      <point x="325" y="264"/>
      <point x="409" y="145"/>
    </contour>
  </outline>
</glyph>
<glyph name="uni10EE" format="1">
  <advance width="1233"/>
  <unicode hex="10EE"/>
  <outline>
    <contour>
      <point x="638" y="0" type="curve" smooth="yes" name="ab01"/>
      <point x="332" y="0" name="sh01"/>
      <point x="179" y="175" name="av01"/>
      <point x="179" y="525" type="curve" smooth="yes"/>
      <point x="179" y="1521" type="line" name="sh02"/>
      <point x="350" y="1521" type="line"/>
      <point x="350" y="914" type="line" name="dv02"/>
      <point x="391" y="914" type="line" name="sh03"/>
      <point x="447" y="1011"/>
      <point x="526" y="1046" name="sv01"/>
      <point x="654" y="1046" type="curve" smooth="yes" name="ah02"/>
      <point x="937" y="1046" name="dv01"/>
      <point x="1096" y="873"/>
      <point x="1096" y="522" type="curve" smooth="yes"/>
      <point x="1096" y="175" name="ah01"/>
      <point x="945" y="0" name="sh04"/>
    </contour>
    <contour>
      <point x="639" y="145" type="curve" smooth="yes"/>
      <point x="819" y="145"/>
      <point x="909" y="271"/>
      <point x="909" y="524" type="curve" smooth="yes"/>
      <point x="909" y="777"/>
      <point x="819" y="904"/>
      <point x="639" y="904" type="curve" smooth="yes"/>
      <point x="456" y="904"/>
      <point x="365" y="777"/>
      <point x="365" y="524" type="curve" smooth="yes"/>
      <point x="365" y="271"/>
      <point x="456" y="145"/>
    </contour>
  </outline>
</glyph>
<glyph name="uni10F8" format="1">
  <advance width="1233"/>
  <unicode hex="10F8"/>
  <outline>
    <contour>
      <point x="638" y="-423" type="curve" smooth="yes" name="dv01"/>
      <point x="332" y="-423" name="sh01"/>
      <point x="179" y="-291"/>
      <point x="179" y="-27" type="curve" smooth="yes" name="sh03"/>
      <point x="179" y="1022" type="line"/>
      <point x="352" y="1022" type="line" name="dv04"/>
      <point x="352" y="458" type="line" smooth="yes" name="ah02"/>
      <point x="352" y="331" name="ih01"/>
      <point x="462" y="267" name="av01"/>
      <point x="622" y="267" type="curve" smooth="yes" name="sh04"/>
      <point x="819" y="267"/>
      <point x="907" y="362" name="dv03"/>
      <point x="907" y="557" type="curve" smooth="yes"/>
      <point x="907" y="749"/>
      <point x="821" y="878" name="sh02"/>
      <point x="644" y="1001" type="curve" name="dv02"/>
      <point x="815" y="1064" type="line" name="sh05"/>
      <point x="991" y="923" name="sh06"/>
      <point x="1095" y="704"/>
      <point x="1095" y="512" type="curve" smooth="yes" name="ah01"/>
      <point x="1095" y="295" name="sh07"/>
      <point x="961" y="115"/>
      <point x="644" y="115" type="curve" smooth="yes"/>
      <point x="642" y="115" type="line" smooth="yes"/>
      <point x="519" y="115"/>
      <point x="429" y="145"/>
      <point x="372" y="204" type="curve"/>
      <point x="352" y="204" type="line"/>
      <point x="352" y="-23" type="line" smooth="yes"/>
      <point x="352" y="-196"/>
      <point x="488" y="-284"/>
      <point x="628" y="-284" type="curve" smooth="yes"/>
      <point x="767" y="-284"/>
      <point x="907" y="-196"/>
      <point x="907" y="-23" type="curve"/>
      <point x="1094" y="-23" type="line"/>
      <point x="1093" y="-290"/>
      <point x="941" y="-423"/>
    </contour>
  </outline>
</glyph>
<glyph name="wdieresis" format="1">
  <advance width="1233"/>
  <unicode hex="1E85"/>
  <outline>
    <contour>
      <point x="349" y="1320" type="line" smooth="yes" name="dv01"/>
      <point x="329" y="1320" name="sh01"/>
      <point x="319" y="1330"/>
      <point x="319" y="1350" type="curve" smooth="yes" name="dv02"/>
      <point x="319" y="1492" type="line" smooth="yes"/>
      <point x="319" y="1512"/>
      <point x="329" y="1522" name="sh02"/>
      <point x="349" y="1522" type="curve" smooth="yes"/>
      <point x="492" y="1522" type="line" smooth="yes" name="sv01"/>
      <point x="512" y="1522" name="ah02"/>
      <point x="522" y="1512"/>
      <point x="522" y="1492" type="curve" smooth="yes" name="sv02"/>
      <point x="522" y="1350" type="line" smooth="yes"/>
      <point x="522" y="1330"/>
      <point x="512" y="1320" name="sh03"/>
      <point x="492" y="1320" type="curve" smooth="yes"/>
    </contour>
    <contour>
      <point x="741" y="1320" type="line" smooth="yes" name="at01"/>
      <point x="721" y="1320"/>
      <point x="711" y="1330" name="ih01"/>
      <point x="711" y="1350" type="curve" smooth="yes"/>
      <point x="711" y="1492" type="line" smooth="yes"/>
      <point x="711" y="1512" name="ih02"/>
      <point x="721" y="1522" name="at02"/>
      <point x="741" y="1522" type="curve" smooth="yes"/>
      <point x="883" y="1522" type="line" smooth="yes" name="ab01"/>
      <point x="903" y="1522"/>
      <point x="913" y="1512" name="ih03"/>
      <point x="913" y="1492" type="curve" smooth="yes" name="ab02"/>
      <point x="913" y="1350" type="line" smooth="yes"/>
      <point x="913" y="1330" name="ah01"/>
      <point x="903" y="1320"/>
      <point x="883" y="1320" type="curve" smooth="yes"/>
    </contour>
    <contour>
      <point x="0" y="1120" type="line"/>
      <point x="182" y="1120" type="line"/>
      <point x="377" y="215" type="line"/>
      <point x="537" y="793" type="line"/>
      <point x="694" y="793" type="line"/>
      <point x="856" y="215" type="line"/>
      <point x="1051" y="1120" type="line"/>
      <point x="1233" y="1120" type="line"/>
      <point x="971" y="0" type="line"/>
      <point x="795" y="0" type="line"/>
      <point x="616" y="614" type="line"/>
      <point x="438" y="0" type="line"/>
      <point x="262" y="0" type="line"/>
    </contour>
  </outline>
</glyph>
<glyph name="uni2075" format="1">
  <advance width="1233"/>
  <unicode hex="2075"/>
  <outline>
    <contour>
      <point x="563" y="1084" type="curve" smooth="yes" name="dv01"/>
      <point x="464" y="1084"/>
      <point x="383" y="1096"/>
      <point x="319" y="1120" type="curve" name="dv02"/>
      <point x="319" y="1234" type="line" name="ah02"/>
      <point x="388" y="1199" name="dv05"/>
      <point x="471" y="1179" name="sh01"/>
      <point x="551" y="1179" type="curve" smooth="yes"/>
      <point x="691" y="1179" name="dv04"/>
      <point x="767" y="1247" name="dv03"/>
      <point x="767" y="1368" type="curve" smooth="yes"/>
      <point x="767" y="1488" name="sh02"/>
      <point x="685" y="1557" name="dv06"/>
      <point x="548" y="1557" type="curve" smooth="yes" name="sh03"/>
      <point x="481" y="1557"/>
      <point x="418" y="1543" name="ah01"/>
      <point x="358" y="1516" type="curve"/>
      <point x="358" y="1934" type="line"/>
      <point x="828" y="1934" type="line"/>
      <point x="828" y="1839" type="line"/>
      <point x="473" y="1839" type="line"/>
      <point x="473" y="1635" type="line"/>
      <point x="506" y="1646"/>
      <point x="542" y="1652"/>
      <point x="581" y="1652" type="curve" smooth="yes"/>
      <point x="772" y="1652"/>
      <point x="893" y="1543"/>
      <point x="893" y="1368" type="curve" smooth="yes"/>
      <point x="893" y="1192"/>
      <point x="767" y="1084"/>
    </contour>
  </outline>
</glyph>
<glyph name="Omega" format="1">
  <advance width="1233"/>
  <unicode hex="2126"/>
  <outline>
    <contour>
      <point x="74" y="172" type="line" name="sh01"/>
      <point x="319" y="172" type="line"/>
      <point x="159" y="346" name="dh01"/>
      <point x="86" y="528" name="dv02"/>
      <point x="86" y="778" type="curve" smooth="yes" name="dh04"/>
      <point x="86" y="1200" name="ih01"/>
      <point x="294" y="1460" name="sh02"/>
      <point x="615" y="1460" type="curve" smooth="yes" name="ab01"/>
      <point x="938" y="1460"/>
      <point x="1145" y="1198" name="dh03"/>
      <point x="1145" y="778" type="curve" smooth="yes" name="sh03"/>
      <point x="1145" y="533" name="dv01"/>
      <point x="1074" y="349" name="dh02"/>
      <point x="911" y="172" type="curve" name="sh04"/>
      <point x="1159" y="172" type="line" name="ab02"/>
      <point x="1159" y="0" type="line"/>
      <point x="696" y="0" type="line"/>
      <point x="696" y="172" type="line" name="sh05"/>
      <point x="851" y="268"/>
      <point x="950" y="505"/>
      <point x="950" y="788" type="curve" smooth="yes"/>
      <point x="950" y="1112"/>
      <point x="820" y="1294"/>
      <point x="616" y="1294" type="curve" smooth="yes"/>
      <point x="411" y="1294"/>
      <point x="283" y="1112"/>
      <point x="283" y="789" type="curve" smooth="yes"/>
      <point x="283" y="519"/>
      <point x="373" y="273"/>
      <point x="537" y="172" type="curve"/>
      <point x="537" y="0" type="line"/>
      <point x="74" y="0" type="line"/>
    </contour>
  </outline>
</glyph>
<glyph name="onethird" format="1">
  <advance width="1233"/>
  <unicode hex="2153"/>
  <outline>
    <contour>
      <point x="104" y="934" type="line" name="sv01"/>
      <point x="309" y="934" type="line" name="sh01"/>
      <point x="309" y="1545" type="line"/>
      <point x="86" y="1504" type="line"/>
      <point x="86" y="1620" type="line" name="dh01"/>
      <point x="315" y="1659" type="line" name="av01"/>
      <point x="453" y="1659" type="line" name="dh02"/>
      <point x="453" y="934" type="line"/>
      <point x="657" y="934" type="line" name="dv08"/>
      <point x="657" y="824" type="line" name="dv07"/>
      <point x="104" y="824" type="line"/>
    </contour>
    <contour>
      <point x="27" y="612" type="line"/>
      <point x="1087" y="874" type="line"/>
      <point x="1114" y="766" type="line"/>
      <point x="51" y="504" type="line"/>
    </contour>
    <contour>
      <point x="758" y="-285" type="curve" smooth="yes" name="dv01"/>
      <point x="681" y="-285"/>
      <point x="607" y="-271" name="ih01"/>
      <point x="527" y="-244" type="curve" name="dv02"/>
      <point x="527" y="-123" type="line"/>
      <point x="619" y="-159" name="dv03"/>
      <point x="694" y="-176"/>
      <point x="754" y="-176" type="curve" smooth="yes"/>
      <point x="890" y="-176" name="dv04"/>
      <point x="973" y="-119" name="dh03"/>
      <point x="973" y="-27" type="curve" smooth="yes" name="dv05"/>
      <point x="973" y="73" name="ih02"/>
      <point x="900" y="123"/>
      <point x="754" y="123" type="curve" smooth="yes" name="dv06"/>
      <point x="688" y="123" type="line"/>
      <point x="688" y="231" type="line" name="ih03"/>
      <point x="762" y="231" type="line" smooth="yes" name="dh04"/>
      <point x="887" y="231"/>
      <point x="953" y="274"/>
      <point x="953" y="354" type="curve" smooth="yes" name="sh02"/>
      <point x="953" y="430"/>
      <point x="887" y="473"/>
      <point x="770" y="473" type="curve" smooth="yes"/>
      <point x="710" y="473"/>
      <point x="635" y="457"/>
      <point x="555" y="426" type="curve"/>
      <point x="555" y="547" type="line"/>
      <point x="647" y="570"/>
      <point x="723" y="582"/>
      <point x="791" y="582" type="curve" smooth="yes"/>
      <point x="983" y="582"/>
      <point x="1104" y="497"/>
      <point x="1104" y="365" type="curve" smooth="yes"/>
      <point x="1104" y="269"/>
      <point x="1045" y="207"/>
      <point x="932" y="182" type="curve" name="hr01"/>
      <point x="1057" y="154"/>
      <point x="1125" y="81"/>
      <point x="1125" y="-27" type="curve" smooth="yes"/>
      <point x="1125" y="-194"/>
      <point x="995" y="-285"/>
    </contour>
  </outline>
</glyph>
<glyph name="twothirds" format="1">
  <advance width="1233"/>
  <unicode hex="2154"/>
  <outline>
    <contour>
      <point x="64" y="934" type="line" name="hr00"/>
      <point x="295" y="1160" type="line"/>
      <point x="363" y="1225"/>
      <point x="410" y="1277" name="sh01"/>
      <point x="437" y="1318" type="curve" smooth="yes" name="dv03"/>
      <point x="464" y="1359"/>
      <point x="477" y="1396"/>
      <point x="477" y="1430" type="curve" smooth="yes" name="dv04"/>
      <point x="477" y="1511" name="sh02"/>
      <point x="404" y="1567"/>
      <point x="295" y="1567" type="curve" smooth="yes"/>
      <point x="229" y="1567"/>
      <point x="154" y="1543" name="sh03"/>
      <point x="70" y="1495" type="curve" name="dv09"/>
      <point x="70" y="1620" type="line"/>
      <point x="158" y="1657"/>
      <point x="235" y="1676"/>
      <point x="315" y="1676" type="curve" smooth="yes" name="sh05"/>
      <point x="504" y="1676"/>
      <point x="629" y="1579" name="dv01"/>
      <point x="629" y="1436" type="curve" smooth="yes"/>
      <point x="629" y="1397" name="ih01"/>
      <point x="617" y="1359" name="dv02"/>
      <point x="592" y="1320" type="curve" smooth="yes"/>
      <point x="567" y="1280" name="dv05"/>
      <point x="515" y="1221"/>
      <point x="436" y="1143" type="curve" smooth="yes"/>
      <point x="225" y="938" type="line" name="dv06"/>
      <point x="635" y="938" type="line" name="ah02"/>
      <point x="635" y="824" type="line" name="dv07"/>
      <point x="64" y="824" type="line" name="ih02"/>
    </contour>
    <contour>
      <point x="27" y="612" type="line"/>
      <point x="1087" y="874" type="line" name="dv08"/>
      <point x="1114" y="766" type="line"/>
      <point x="51" y="504" type="line" name="ih03"/>
    </contour>
    <contour>
      <point x="758" y="-285" type="curve" smooth="yes" name="sh04"/>
      <point x="681" y="-285"/>
      <point x="607" y="-271" name="ah01"/>
      <point x="527" y="-244" type="curve" name="sh06"/>
      <point x="527" y="-123" type="line"/>
      <point x="619" y="-159"/>
      <point x="694" y="-176"/>
      <point x="754" y="-176" type="curve" smooth="yes"/>
      <point x="890" y="-176"/>
      <point x="973" y="-119"/>
      <point x="973" y="-27" type="curve" smooth="yes"/>
      <point x="973" y="73"/>
      <point x="900" y="123"/>
      <point x="754" y="123" type="curve" smooth="yes"/>
      <point x="688" y="123" type="line"/>
      <point x="688" y="231" type="line"/>
      <point x="762" y="231" type="line" smooth="yes"/>
      <point x="887" y="231"/>
      <point x="953" y="274"/>
      <point x="953" y="354" type="curve" smooth="yes"/>
      <point x="953" y="430"/>
      <point x="887" y="473"/>
      <point x="770" y="473" type="curve" smooth="yes"/>
      <point x="710" y="473"/>
      <point x="635" y="457"/>
      <point x="555" y="426" type="curve"/>
      <point x="555" y="547" type="line"/>
      <point x="647" y="570"/>
      <point x="723" y="582"/>
      <point x="791" y="582" type="curve" smooth="yes"/>
      <point x="983" y="582"/>
      <point x="1104" y="497"/>
      <point x="1104" y="365" type="curve" smooth="yes"/>
      <point x="1104" y="269"/>
      <point x="1045" y="207"/>
      <point x="932" y="182" type="curve"/>
      <point x="1057" y="154"/>
      <point x="1125" y="81"/>
      <point x="1125" y="-27" type="curve" smooth="yes"/>
      <point x="1125" y="-194"/>
      <point x="995" y="-285"/>
    </contour>
  </outline>
</glyph>
<glyph name="uni215F" format="1">
  <advance width="1233"/>
  <unicode hex="215F"/>
  <outline>
    <contour>
      <point x="104" y="934" type="line" name="sv01"/>
      <point x="309" y="934" type="line" name="sh01"/>
      <point x="309" y="1545" type="line"/>
      <point x="86" y="1504" type="line"/>
      <point x="86" y="1620" type="line" name="dh01"/>
      <point x="315" y="1659" type="line" name="av01"/>
      <point x="453" y="1659" type="line" name="dh02"/>
      <point x="453" y="934" type="line"/>
      <point x="657" y="934" type="line" name="dv02"/>
      <point x="657" y="824" type="line" name="dv01"/>
      <point x="104" y="824" type="line"/>
    </contour>
    <contour>
      <point x="27" y="612" type="line"/>
      <point x="1087" y="874" type="line" name="hr01"/>
      <point x="1114" y="766" type="line"/>
      <point x="51" y="504" type="line" name="av02"/>
    </contour>
  </outline>
</glyph>
<glyph name="uni21B9" format="1">
  <advance width="1233"/>
  <unicode hex="21B9"/>
  <outline>
    <contour>
      <point x="66" y="1238" type="line" name="sh01"/>
      <point x="230" y="1238" type="line" name="sh02"/>
      <point x="230" y="947" type="line" name="iv01"/>
      <point x="521" y="1238" type="line" name="av01"/>
      <point x="611" y="1148" type="line"/>
      <point x="451" y="988" type="line" name="ih01"/>
      <point x="1167" y="988" type="line" name="sh04"/>
      <point x="1167" y="824" type="line" name="dv01"/>
      <point x="451" y="824" type="line" name="ih02"/>
      <point x="611" y="664" type="line"/>
      <point x="521" y="574" type="line"/>
      <point x="230" y="865" type="line" name="sh05"/>
      <point x="230" y="574" type="line"/>
      <point x="66" y="574" type="line"/>
    </contour>
    <contour>
      <point x="622" y="90" type="line"/>
      <point x="782" y="250" type="line" name="ih03"/>
      <point x="66" y="250" type="line" name="sh06"/>
      <point x="66" y="414" type="line"/>
      <point x="782" y="414" type="line" name="ih04"/>
      <point x="622" y="574" type="line"/>
      <point x="712" y="664" type="line"/>
      <point x="1003" y="373" type="line" name="iv02"/>
      <point x="1003" y="664" type="line" name="ah01"/>
      <point x="1167" y="664" type="line" name="sh03"/>
      <point x="1167" y="0" type="line" name="ab01"/>
      <point x="1003" y="0" type="line" name="sh07"/>
      <point x="1003" y="291" type="line" name="ih05"/>
      <point x="712" y="0" type="line" name="ab02"/>
    </contour>
  </outline>
</glyph>
<glyph name="uni21DB" format="1">
  <advance width="1233"/>
  <unicode hex="21DB"/>
  <outline>
    <contour>
      <point x="786" y="319" type="line" name="dv01"/>
      <point x="66" y="319" type="line"/>
      <point x="66" y="401" type="line"/>
      <point x="868" y="401" type="line" name="dv02"/>
      <point x="987" y="520" type="line" name="dv05"/>
      <point x="66" y="520" type="line"/>
      <point x="66" y="602" type="line"/>
      <point x="987" y="602" type="line" name="dv06"/>
      <point x="868" y="721" type="line" name="dv03"/>
      <point x="66" y="721" type="line"/>
      <point x="66" y="803" type="line"/>
      <point x="786" y="803" type="line" name="dv04"/>
      <point x="876" y="893" type="line" name="av02"/>
      <point x="1167" y="602" type="line"/>
      <point x="1167" y="520" type="line"/>
      <point x="876" y="229" type="line" name="av01"/>
    </contour>
  </outline>
</glyph>
<glyph name="uni21F6" format="1">
  <advance width="1233"/>
  <unicode hex="21F6"/>
  <outline>
    <contour>
      <point x="786" y="-165" type="line" name="hr00"/>
      <point x="946" y="-5" type="line" name="ab01"/>
      <point x="66" y="-5" type="line"/>
      <point x="66" y="159" type="line" name="sv01"/>
      <point x="946" y="159" type="line"/>
      <point x="786" y="319" type="line"/>
      <point x="946" y="479" type="line" name="dv01"/>
      <point x="66" y="479" type="line"/>
      <point x="66" y="643" type="line"/>
      <point x="946" y="643" type="line" name="dv02"/>
      <point x="786" y="803" type="line"/>
      <point x="946" y="963" type="line" name="sv02"/>
      <point x="66" y="963" type="line"/>
      <point x="66" y="1127" type="line" name="at01"/>
      <point x="946" y="1127" type="line"/>
      <point x="786" y="1287" type="line"/>
      <point x="876" y="1377" type="line" name="av02"/>
      <point x="1167" y="1086" type="line"/>
      <point x="1167" y="1004" type="line"/>
      <point x="966" y="803" type="line"/>
      <point x="1167" y="602" type="line"/>
      <point x="1167" y="520" type="line"/>
      <point x="966" y="319" type="line"/>
      <point x="1167" y="118" type="line"/>
      <point x="1167" y="36" type="line"/>
      <point x="876" y="-255" type="line" name="av01"/>
    </contour>
  </outline>
</glyph>
<glyph name="uni220C" format="1">
  <advance width="1233"/>
  <unicode hex="220C"/>
  <outline>
    <contour>
      <point x="214" y="-127" type="line" name="hr00"/>
      <point x="253" y="0" type="line" name="ab01"/>
      <point x="130" y="0" type="line"/>
      <point x="130" y="170" type="line" name="sv01"/>
      <point x="304" y="170" type="line"/>
      <point x="450" y="647" type="line" name="dv03"/>
      <point x="130" y="647" type="line"/>
      <point x="130" y="817" type="line"/>
      <point x="500" y="817" type="line" name="dv04"/>
      <point x="645" y="1290" type="line"/>
      <point x="632" y="1293" name="dv01"/>
      <point x="618" y="1294"/>
      <point x="602" y="1294" type="curve" smooth="yes"/>
      <point x="130" y="1294" type="line" name="dv02"/>
      <point x="130" y="1464" type="line"/>
      <point x="602" y="1464" type="line" smooth="yes" name="av02"/>
      <point x="633" y="1464"/>
      <point x="664" y="1460"/>
      <point x="694" y="1452" type="curve"/>
      <point x="751" y="1641" type="line"/>
      <point x="914" y="1592" type="line" name="ab02"/>
      <point x="847" y="1371" type="line"/>
      <point x="1008" y="1237" name="av01"/>
      <point x="1104" y="999" name="sv02"/>
      <point x="1104" y="731" type="curve" smooth="yes" name="iv01"/>
      <point x="1104" y="467" name="iv02"/>
      <point x="1009" y="229" name="sv03"/>
      <point x="854" y="98" type="curve" smooth="yes"/>
      <point x="777" y="33" name="sv04"/>
      <point x="693" y="0"/>
      <point x="602" y="0" type="curve" smooth="yes" name="sv05"/>
      <point x="431" y="0" type="line"/>
      <point x="377" y="-177" type="line"/>
    </contour>
    <contour>
      <point x="928" y="817" type="line"/>
      <point x="917" y="953"/>
      <point x="870" y="1099"/>
      <point x="793" y="1192" type="curve"/>
      <point x="679" y="817" type="line"/>
    </contour>
    <contour>
      <point x="602" y="170" type="line" smooth="yes"/>
      <point x="723" y="170"/>
      <point x="829" y="278"/>
      <point x="888" y="450" type="curve" smooth="yes"/>
      <point x="905" y="501"/>
      <point x="923" y="572"/>
      <point x="928" y="647" type="curve"/>
      <point x="627" y="647" type="line"/>
      <point x="482" y="170" type="line"/>
    </contour>
  </outline>
</glyph>
<glyph name="proportional" format="1">
  <advance width="1233"/>
  <unicode hex="221D"/>
  <outline>
    <contour>
      <point x="479" y="250" type="curve" smooth="yes" name="dv01"/>
      <point x="310" y="250" name="dh01"/>
      <point x="186" y="405" name="sv01"/>
      <point x="186" y="636" type="curve" smooth="yes"/>
      <point x="186" y="857" name="dv04"/>
      <point x="300" y="1008" name="dv03"/>
      <point x="477" y="1008" type="curve" smooth="yes"/>
      <point x="600" y="1008"/>
      <point x="687" y="936" name="sv02"/>
      <point x="762" y="764" type="curve" name="sv03"/>
      <point x="823" y="921"/>
      <point x="925" y="1008"/>
      <point x="1046" y="1008" type="curve" name="dv02"/>
      <point x="1046" y="868" type="line"/>
      <point x="970" y="868"/>
      <point x="901" y="794" name="sv04"/>
      <point x="840" y="627" type="curve" name="dh02"/>
      <point x="882" y="519"/>
      <point x="916" y="470"/>
      <point x="942" y="441" type="curve" smooth="yes"/>
      <point x="973" y="408"/>
      <point x="1008" y="391"/>
      <point x="1046" y="391" type="curve"/>
      <point x="1046" y="250" type="line"/>
      <point x="940" y="250"/>
      <point x="863" y="306"/>
      <point x="760" y="481" type="curve"/>
      <point x="675" y="321"/>
      <point x="595" y="250"/>
    </contour>
    <contour>
      <point x="465" y="391" type="curve" smooth="yes"/>
      <point x="557" y="391"/>
      <point x="625" y="476"/>
      <point x="682" y="635" type="curve"/>
      <point x="642" y="731"/>
      <point x="609" y="788"/>
      <point x="580" y="819" type="curve" smooth="yes"/>
      <point x="549" y="852"/>
      <point x="514" y="868"/>
      <point x="474" y="868" type="curve" smooth="yes"/>
      <point x="378" y="868"/>
      <point x="312" y="773"/>
      <point x="312" y="624" type="curve" smooth="yes"/>
      <point x="312" y="484"/>
      <point x="371" y="391"/>
    </contour>
  </outline>
</glyph>
<glyph name="uni2223" format="1">
  <advance width="1233"/>
  <unicode hex="2223"/>
  <outline>
    <contour>
      <point x="530" y="1565" type="line" name="dh01"/>
      <point x="702" y="1565" type="line" name="dh02"/>
      <point x="702" y="-483" type="line" name="av01"/>
      <point x="530" y="-483" type="line"/>
    </contour>
  </outline>
</glyph>
<glyph name="uni2236" format="1">
  <advance width="1233"/>
  <unicode hex="2236"/>
  <outline>
    <contour>
      <point x="518" y="851" type="line" smooth="yes" name="dv03"/>
      <point x="498" y="851" name="dh01"/>
      <point x="488" y="861"/>
      <point x="488" y="881" type="curve" smooth="yes" name="dv04"/>
      <point x="488" y="1126" type="line" smooth="yes"/>
      <point x="488" y="1146"/>
      <point x="498" y="1156" name="dh02"/>
      <point x="518" y="1156" type="curve" smooth="yes"/>
      <point x="710" y="1156" type="line" smooth="yes" name="dv01"/>
      <point x="730" y="1156" name="sh01"/>
      <point x="740" y="1146"/>
      <point x="740" y="1126" type="curve" smooth="yes" name="dv02"/>
      <point x="740" y="881" type="line" smooth="yes"/>
      <point x="740" y="861" name="sh02"/>
      <point x="730" y="851"/>
      <point x="710" y="851" type="curve" smooth="yes"/>
    </contour>
    <contour>
      <point x="522" y="134" type="line" smooth="yes"/>
      <point x="502" y="134"/>
      <point x="492" y="144"/>
      <point x="492" y="164" type="curve" smooth="yes"/>
      <point x="492" y="409" type="line" smooth="yes"/>
      <point x="492" y="429"/>
      <point x="502" y="439"/>
      <point x="522" y="439" type="curve" smooth="yes"/>
      <point x="714" y="439" type="line" smooth="yes"/>
      <point x="734" y="439"/>
      <point x="744" y="429"/>
      <point x="744" y="409" type="curve" smooth="yes"/>
      <point x="744" y="164" type="line" smooth="yes"/>
      <point x="744" y="144"/>
      <point x="734" y="134"/>
      <point x="714" y="134" type="curve" smooth="yes"/>
    </contour>
  </outline>
</glyph>
<glyph name="approxequal" format="1">
  <advance width="1233"/>
  <unicode hex="2248"/>
  <outline>
    <contour>
      <point x="88" y="848" type="line"/>
      <point x="140" y="888"/>
      <point x="194" y="919" name="dv06"/>
      <point x="239" y="936" type="curve" smooth="yes"/>
      <point x="287" y="955"/>
      <point x="335" y="963"/>
      <point x="407" y="963" type="curve" smooth="yes" name="dv08"/>
      <point x="430" y="963"/>
      <point x="448" y="962"/>
      <point x="498" y="951" type="curve" smooth="yes"/>
      <point x="544" y="940"/>
      <point x="564" y="933" name="dv07"/>
      <point x="623" y="909" type="curve"/>
      <point x="647" y="898"/>
      <point x="634" y="905"/>
      <point x="655" y="894" type="curve" smooth="yes" name="dv05"/>
      <point x="718" y="863"/>
      <point x="798" y="840"/>
      <point x="866" y="840" type="curve" smooth="yes" name="hr02"/>
      <point x="911" y="840"/>
      <point x="957" y="850" name="dv04"/>
      <point x="1003" y="870" type="curve" smooth="yes"/>
      <point x="1046" y="889"/>
      <point x="1098" y="923"/>
      <point x="1145" y="963" type="curve" name="dv02"/>
      <point x="1145" y="788" type="line" name="hr03"/>
      <point x="1095" y="749"/>
      <point x="1046" y="721"/>
      <point x="999" y="702" type="curve" smooth="yes"/>
      <point x="951" y="683" name="dv01"/>
      <point x="901" y="674"/>
      <point x="850" y="674" type="curve" smooth="yes" name="hr04"/>
      <point x="775" y="674"/>
      <point x="718" y="694" name="dv03"/>
      <point x="645" y="725" type="curve" smooth="yes"/>
      <point x="612" y="739" type="line" smooth="yes"/>
      <point x="548" y="766"/>
      <point x="527" y="774"/>
      <point x="484" y="785" type="curve" smooth="yes"/>
      <point x="449" y="793"/>
      <point x="415" y="797"/>
      <point x="382" y="797" type="curve" smooth="yes" name="hr05"/>
      <point x="327" y="797"/>
      <point x="275" y="787"/>
      <point x="232" y="768" type="curve" smooth="yes" name="hr06"/>
      <point x="191" y="751"/>
      <point x="139" y="719"/>
      <point x="88" y="674" type="curve"/>
    </contour>
    <contour>
      <point x="88" y="479" type="line"/>
      <point x="141" y="520"/>
      <point x="195" y="552"/>
      <point x="240" y="569" type="curve" smooth="yes"/>
      <point x="283" y="585"/>
      <point x="337" y="596"/>
      <point x="392" y="596" type="curve" smooth="yes" name="hr07"/>
      <point x="459" y="596"/>
      <point x="535" y="578"/>
      <point x="621" y="541" type="curve"/>
      <point x="622" y="541" type="line"/>
      <point x="655" y="526" type="line" smooth="yes"/>
      <point x="735" y="490"/>
      <point x="794" y="471"/>
      <point x="862" y="471" type="curve" smooth="yes" name="hr08"/>
      <point x="917" y="471"/>
      <point x="958" y="483"/>
      <point x="1001" y="502" type="curve" smooth="yes"/>
      <point x="1046" y="522"/>
      <point x="1089" y="549"/>
      <point x="1145" y="596" type="curve"/>
      <point x="1145" y="420" type="line" name="hr09"/>
      <point x="1094" y="381"/>
      <point x="1044" y="352"/>
      <point x="999" y="333" type="curve" smooth="yes"/>
      <point x="951" y="314"/>
      <point x="899" y="305"/>
      <point x="851" y="305" type="curve" smooth="yes" name="hr10"/>
      <point x="786" y="305"/>
      <point x="721" y="321"/>
      <point x="645" y="356" type="curve" smooth="yes"/>
      <point x="612" y="371" type="line" smooth="yes"/>
      <point x="572" y="389"/>
      <point x="512" y="411"/>
      <point x="480" y="419" type="curve" smooth="yes"/>
      <point x="455" y="426"/>
      <point x="414" y="430"/>
      <point x="379" y="430" type="curve" smooth="yes" name="hr11"/>
      <point x="328" y="430"/>
      <point x="280" y="420"/>
      <point x="233" y="400" type="curve" smooth="yes" name="hr12"/>
      <point x="186" y="380"/>
      <point x="137" y="348"/>
      <point x="88" y="305" type="curve"/>
    </contour>
  </outline>
</glyph>
<glyph name="uni224F" format="1">
  <advance width="1233"/>
  <unicode hex="224F"/>
  <outline>
    <contour>
      <point x="88" y="930" type="line" name="sv01"/>
      <point x="313" y="930" type="line"/>
      <point x="319" y="958"/>
      <point x="333" y="1075" name="dv03"/>
      <point x="461" y="1163" type="curve" smooth="yes"/>
      <point x="508" y="1195"/>
      <point x="557" y="1214" name="dv04"/>
      <point x="613" y="1214" type="curve" smooth="yes" name="dh02"/>
      <point x="720" y="1214" name="dh01"/>
      <point x="835" y="1143"/>
      <point x="886" y="1038" type="curve" smooth="yes" name="dv02"/>
      <point x="901" y="1009"/>
      <point x="913" y="970" name="sv02"/>
      <point x="920" y="930" type="curve"/>
      <point x="1145" y="930" type="line"/>
      <point x="1145" y="762" type="line" name="sh01"/>
      <point x="803" y="762" type="line" name="dv01"/>
      <point x="799" y="891"/>
      <point x="763" y="977"/>
      <point x="708" y="1025" type="curve" name="sh02"/>
      <point x="679" y="1052"/>
      <point x="652" y="1060"/>
      <point x="617" y="1059" type="curve" smooth="yes"/>
      <point x="545" y="1056"/>
      <point x="488" y="1010"/>
      <point x="456" y="914" type="curve" smooth="yes"/>
      <point x="443" y="873"/>
      <point x="434" y="823"/>
      <point x="431" y="762" type="curve"/>
      <point x="88" y="762" type="line"/>
    </contour>
    <contour>
      <point x="88" y="522" type="line"/>
      <point x="1145" y="522" type="line"/>
      <point x="1145" y="352" type="line"/>
      <point x="88" y="352" type="line"/>
    </contour>
  </outline>
</glyph>
<glyph name="uni2289" format="1">
  <advance width="1233"/>
  <unicode hex="2289"/>
  <outline>
    <contour>
      <point x="261" y="-159" type="line" name="hr00"/>
      <point x="314" y="0" type="line" name="ab01"/>
      <point x="88" y="0" type="line"/>
      <point x="88" y="170" type="line" name="sv01"/>
      <point x="371" y="170" type="line"/>
      <point x="422" y="324" type="line" name="dv03"/>
      <point x="88" y="324" type="line"/>
      <point x="88" y="474" type="line"/>
      <point x="473" y="474" type="line" name="dv04"/>
      <point x="692" y="1129" type="line"/>
      <point x="684" y="1130" name="dv01"/>
      <point x="676" y="1130"/>
      <point x="668" y="1130" type="curve" smooth="yes"/>
      <point x="88" y="1130" type="line" name="dv02"/>
      <point x="88" y="1280" type="line" name="sv02"/>
      <point x="668" y="1280" type="line" smooth="yes" name="at01"/>
      <point x="693" y="1280"/>
      <point x="718" y="1278"/>
      <point x="741" y="1275" type="curve"/>
      <point x="814" y="1494" type="line" name="dh02"/>
      <point x="972" y="1441" type="line" name="sv03"/>
      <point x="899" y="1223" type="line"/>
      <point x="936" y="1202" name="sv04"/>
      <point x="972" y="1175" name="sh01"/>
      <point x="1006" y="1141" type="curve" smooth="yes" name="ab02"/>
      <point x="1099" y="1046"/>
      <point x="1145" y="934" name="av01"/>
      <point x="1145" y="806" type="curve" smooth="yes" name="sv05"/>
      <point x="1145" y="534" name="dh01"/>
      <point x="935" y="324"/>
      <point x="667" y="324" type="curve" smooth="yes" name="iv01"/>
      <point x="599" y="324" type="line" name="iv02"/>
      <point x="547" y="170" type="line"/>
      <point x="1145" y="170" type="line" name="sh02"/>
      <point x="1145" y="0" type="line"/>
      <point x="490" y="0" type="line"/>
      <point x="420" y="-212" type="line"/>
    </contour>
    <contour>
      <point x="668" y="474" type="line" smooth="yes"/>
      <point x="849" y="474"/>
      <point x="995" y="617"/>
      <point x="995" y="804" type="curve" smooth="yes"/>
      <point x="995" y="896"/>
      <point x="960" y="974"/>
      <point x="900" y="1034" type="curve" smooth="yes"/>
      <point x="885" y="1049"/>
      <point x="868" y="1063"/>
      <point x="850" y="1076" type="curve"/>
      <point x="648" y="474" type="line"/>
    </contour>
  </outline>
</glyph>
<glyph name="uni228B" format="1">
  <advance width="1233"/>
  <unicode hex="228B"/>
  <outline>
    <contour>
      <point x="358" y="-102" type="line" name="hr00"/>
      <point x="440" y="0" type="line" name="ab01"/>
      <point x="88" y="0" type="line"/>
      <point x="88" y="170" type="line" name="sv01"/>
      <point x="576" y="170" type="line"/>
      <point x="700" y="325" type="line" name="iv01"/>
      <point x="689" y="324" name="dv03"/>
      <point x="678" y="324"/>
      <point x="667" y="324" type="curve" smooth="yes"/>
      <point x="88" y="324" type="line" name="dv04"/>
      <point x="88" y="474" type="line" name="dh01"/>
      <point x="668" y="474" type="line" smooth="yes" name="dv01"/>
      <point x="848" y="474"/>
      <point x="995" y="618"/>
      <point x="995" y="802" type="curve" smooth="yes" name="dv02"/>
      <point x="995" y="982" name="dh02"/>
      <point x="851" y="1130" name="iv02"/>
      <point x="668" y="1130" type="curve" smooth="yes"/>
      <point x="88" y="1130" type="line" name="sv02"/>
      <point x="88" y="1280" type="line" name="sh01"/>
      <point x="668" y="1280" type="line" smooth="yes" name="ab02"/>
      <point x="935" y="1280"/>
      <point x="1145" y="1067" name="av01"/>
      <point x="1145" y="798" type="curve" smooth="yes"/>
      <point x="1145" y="538" name="sh02"/>
      <point x="950" y="376"/>
      <point x="791" y="339" type="curve"/>
      <point x="875" y="271" type="line"/>
      <point x="794" y="170" type="line"/>
      <point x="1145" y="170" type="line"/>
      <point x="1145" y="0" type="line"/>
      <point x="657" y="0" type="line"/>
      <point x="490" y="-208" type="line"/>
    </contour>
  </outline>
</glyph>
<glyph name="uni22A1" format="1">
  <advance width="1233"/>
  <unicode hex="22A1"/>
  <outline>
    <contour>
      <point x="80" y="1180" type="line" name="dh01"/>
      <point x="1155" y="1180" type="line" name="dv02"/>
      <point x="1155" y="105" type="line" name="dh06"/>
      <point x="80" y="105" type="line"/>
    </contour>
    <contour>
      <point x="1012" y="245" type="line" name="dh05"/>
      <point x="1012" y="1040" type="line" name="dv01"/>
      <point x="220" y="1040" type="line" name="dh02"/>
      <point x="220" y="245" type="line"/>
    </contour>
    <contour>
      <point x="489" y="784" type="line" name="dh03"/>
      <point x="741" y="784" type="line" name="dh04"/>
      <point x="741" y="479" type="line" name="dv03"/>
      <point x="489" y="479" type="line"/>
    </contour>
  </outline>
</glyph>
<glyph name="uni22E8" format="1">
  <advance width="1233"/>
  <unicode hex="22E8"/>
  <outline>
    <contour>
      <point x="1143" y="213" type="line" name="iv01"/>
      <point x="896" y="481"/>
      <point x="545" y="674"/>
      <point x="86" y="752" type="curve" name="av01"/>
      <point x="86" y="918" type="line"/>
      <point x="557" y="999" name="iv02"/>
      <point x="899" y="1186"/>
      <point x="1143" y="1457" type="curve"/>
      <point x="1143" y="1218" type="line" name="hr01"/>
      <point x="950" y="1016"/>
      <point x="718" y="888" name="dv03"/>
      <point x="448" y="835" type="curve" name="iv03"/>
      <point x="717" y="773"/>
      <point x="948" y="645" name="dv04"/>
      <point x="1143" y="452" type="curve"/>
    </contour>
    <contour>
      <point x="446" y="-406" type="line"/>
      <point x="534" y="-19" type="line"/>
      <point x="511" y="-11"/>
      <point x="497" y="-6" name="dv02"/>
      <point x="482" y="-3" type="curve" smooth="yes" name="iv04"/>
      <point x="447" y="5"/>
      <point x="412" y="9" name="dv01"/>
      <point x="379" y="9" type="curve" smooth="yes" name="hr03"/>
      <point x="274" y="9" name="av02"/>
      <point x="183" y="-29"/>
      <point x="86" y="-114" type="curve"/>
      <point x="86" y="60" type="line" name="hr04"/>
      <point x="190" y="140"/>
      <point x="282" y="175"/>
      <point x="390" y="175" type="curve" smooth="yes" name="hr05"/>
      <point x="466" y="175"/>
      <point x="531" y="157"/>
      <point x="570" y="141" type="curve"/>
      <point x="648" y="484" type="line"/>
      <point x="784" y="453" type="line"/>
      <point x="701" y="86" type="line"/>
      <point x="759" y="63"/>
      <point x="813" y="52"/>
      <point x="862" y="52" type="curve" smooth="yes"/>
      <point x="955" y="52"/>
      <point x="1043" y="91"/>
      <point x="1143" y="175" type="curve"/>
      <point x="1143" y="0" type="line"/>
      <point x="1051" y="-73"/>
      <point x="956" y="-114"/>
      <point x="851" y="-114" type="curve" smooth="yes"/>
      <point x="790" y="-114"/>
      <point x="733" y="-100"/>
      <point x="665" y="-73" type="curve"/>
      <point x="582" y="-437" type="line"/>
    </contour>
  </outline>
</glyph>
<glyph name="uni23AA" format="1">
  <advance width="1233"/>
  <unicode hex="23AA"/>
  <outline>
    <contour>
      <point x="524" y="1932" type="line" name="dh01"/>
      <point x="710" y="1932" type="line" name="dh02"/>
      <point x="710" y="-524" type="line" name="av01"/>
      <point x="524" y="-524" type="line"/>
    </contour>
  </outline>
</glyph>
<glyph name="SF430000" format="1">
  <advance width="1233"/>
  <unicode hex="2550"/>
  <outline>
    <contour>
      <point x="-20" y="962" type="line" name="hr00"/>
      <point x="1253" y="962" type="line" name="dv04"/>
      <point x="1253" y="790" type="line" name="dv03"/>
      <point x="-20" y="790" type="line"/>
    </contour>
    <contour>
      <point x="-20" y="618" type="line"/>
      <point x="1253" y="618" type="line" name="dv02"/>
      <point x="1253" y="446" type="line" name="dv01"/>
      <point x="-20" y="446" type="line"/>
    </contour>
  </outline>
</glyph>
<glyph name="uni257D" format="1">
  <advance width="1233"/>
  <unicode hex="257D"/>
  <outline>
    <contour>
      <point x="456" y="704" type="line" name="dh01"/>
      <point x="536" y="704" type="line" name="ih01"/>
      <point x="536" y="1921" type="line" name="av01"/>
      <point x="696" y="1921" type="line" name="hr01"/>
      <point x="696" y="704" type="line" name="sh01"/>
      <point x="776" y="704" type="line" name="dh02"/>
      <point x="776" y="-512" type="line" name="av02"/>
      <point x="456" y="-512" type="line" name="hr02"/>
    </contour>
  </outline>
</glyph>
<glyph name="uni25A3" format="1">
  <advance width="1233"/>
  <unicode hex="25A3"/>
  <outline>
    <contour>
      <point x="6" y="1142" type="line" name="sh01"/>
      <point x="1227" y="1142" type="line"/>
      <point x="1227" y="-78" type="line" name="sh02"/>
      <point x="6" y="-78" type="line"/>
    </contour>
    <contour>
      <point x="1113" y="36" type="line" name="ah01"/>
      <point x="1113" y="1028" type="line" name="sv01"/>
      <point x="120" y="1028" type="line" name="sh03"/>
      <point x="120" y="36" type="line"/>
    </contour>
    <contour>
      <point x="219" y="929" type="line"/>
      <point x="1013" y="929" type="line"/>
      <point x="1013" y="135" type="line"/>
      <point x="219" y="135" type="line"/>
    </contour>
  </outline>
</glyph>
<glyph name="uni25C9" format="1">
  <advance width="1233"/>
  <unicode hex="25C9"/>
  <outline>
    <contour>
      <point x="617" y="-84" type="curve" smooth="yes" name="dv01"/>
      <point x="524" y="-84"/>
      <point x="413" y="-55" name="sh01"/>
      <point x="310" y="2" type="curve" smooth="yes"/>
      <point x="118" y="109" name="dv04"/>
      <point x="6" y="301"/>
      <point x="6" y="532" type="curve" smooth="yes" name="sh02"/>
      <point x="6" y="765"/>
      <point x="118" y="953"/>
      <point x="310" y="1062" type="curve" name="dv02"/>
      <point x="413" y="1119"/>
      <point x="524" y="1148" name="ah02"/>
      <point x="617" y="1148" type="curve" smooth="yes"/>
      <point x="710" y="1148" name="dv03"/>
      <point x="818" y="1120"/>
      <point x="922" y="1061" type="curve" smooth="yes" name="sh03"/>
      <point x="1117" y="952"/>
      <point x="1227" y="772"/>
      <point x="1227" y="532" type="curve" smooth="yes"/>
      <point x="1227" y="292"/>
      <point x="1117" y="112"/>
      <point x="922" y="3" type="curve" smooth="yes"/>
      <point x="818" y="-56"/>
      <point x="710" y="-84"/>
    </contour>
    <contour>
      <point x="616" y="39" type="curve" smooth="yes"/>
      <point x="692" y="39"/>
      <point x="778" y="62" name="ah01"/>
      <point x="861" y="109" type="curve" smooth="yes" name="sh04"/>
      <point x="1021" y="200"/>
      <point x="1105" y="349"/>
      <point x="1105" y="532" type="curve" smooth="yes"/>
      <point x="1105" y="715"/>
      <point x="1021" y="864"/>
      <point x="861" y="955" type="curve" smooth="yes"/>
      <point x="778" y="1002"/>
      <point x="692" y="1025"/>
      <point x="616" y="1025" type="curve" smooth="yes"/>
      <point x="540" y="1025"/>
      <point x="454" y="1002"/>
      <point x="371" y="955" type="curve" smooth="yes"/>
      <point x="216" y="867"/>
      <point x="128" y="723"/>
      <point x="128" y="532" type="curve" smooth="yes"/>
      <point x="128" y="341"/>
      <point x="216" y="197"/>
      <point x="371" y="109" type="curve" smooth="yes"/>
      <point x="454" y="62"/>
      <point x="540" y="39"/>
    </contour>
    <contour>
      <point x="616" y="132" type="curve" smooth="yes"/>
      <point x="555" y="132"/>
      <point x="485" y="151"/>
      <point x="418" y="188" type="curve"/>
      <point x="285" y="264"/>
      <point x="220" y="385"/>
      <point x="220" y="532" type="curve" smooth="yes"/>
      <point x="220" y="679"/>
      <point x="285" y="800"/>
      <point x="418" y="876" type="curve"/>
      <point x="485" y="913"/>
      <point x="555" y="932"/>
      <point x="616" y="932" type="curve" smooth="yes"/>
      <point x="676" y="932"/>
      <point x="747" y="913"/>
      <point x="815" y="876" type="curve" smooth="yes"/>
      <point x="938" y="808"/>
      <point x="1013" y="689"/>
      <point x="1013" y="532" type="curve" smooth="yes"/>
      <point x="1013" y="375"/>
      <point x="938" y="256"/>
      <point x="815" y="188" type="curve" smooth="yes"/>
      <point x="747" y="151"/>
      <point x="676" y="132"/>
    </contour>
  </outline>
</glyph>
<glyph name="uni25CE" format="1">
  <advance width="1233"/>
  <unicode hex="25CE"/>
  <outline>
    <contour>
      <point x="617" y="-84" type="curve" smooth="yes" name="dv01"/>
      <point x="524" y="-84"/>
      <point x="413" y="-55" name="dh01"/>
      <point x="310" y="2" type="curve" smooth="yes"/>
      <point x="118" y="109" name="dv04"/>
      <point x="6" y="301"/>
      <point x="6" y="532" type="curve" smooth="yes" name="dh08"/>
      <point x="6" y="765"/>
      <point x="118" y="953"/>
      <point x="310" y="1062" type="curve" name="dv02"/>
      <point x="413" y="1119"/>
      <point x="524" y="1148" name="dh07"/>
      <point x="617" y="1148" type="curve" smooth="yes"/>
      <point x="710" y="1148" name="dv03"/>
      <point x="818" y="1120"/>
      <point x="922" y="1061" type="curve" smooth="yes" name="dh02"/>
      <point x="1117" y="952"/>
      <point x="1227" y="772"/>
      <point x="1227" y="532" type="curve" smooth="yes" name="dv05"/>
      <point x="1227" y="292"/>
      <point x="1117" y="112" name="dh03"/>
      <point x="922" y="3" type="curve" smooth="yes"/>
      <point x="818" y="-56" name="dv06"/>
      <point x="710" y="-84"/>
    </contour>
    <contour>
      <point x="616" y="39" type="curve" smooth="yes"/>
      <point x="692" y="39"/>
      <point x="778" y="62"/>
      <point x="861" y="109" type="curve" smooth="yes"/>
      <point x="1021" y="200" name="dh05"/>
      <point x="1105" y="349"/>
      <point x="1105" y="532" type="curve" smooth="yes"/>
      <point x="1105" y="715"/>
      <point x="1021" y="864" name="dh04"/>
      <point x="861" y="955" type="curve" smooth="yes"/>
      <point x="778" y="1002"/>
      <point x="692" y="1025"/>
      <point x="616" y="1025" type="curve" smooth="yes" name="sh01"/>
      <point x="540" y="1025"/>
      <point x="454" y="1002"/>
      <point x="371" y="955" type="curve" smooth="yes"/>
      <point x="216" y="867"/>
      <point x="128" y="723"/>
      <point x="128" y="532" type="curve" smooth="yes"/>
      <point x="128" y="341"/>
      <point x="216" y="197"/>
      <point x="371" y="109" type="curve" smooth="yes"/>
      <point x="454" y="62"/>
      <point x="540" y="39"/>
    </contour>
    <contour>
      <point x="616" y="286" type="curve" smooth="yes"/>
      <point x="580" y="286"/>
      <point x="536" y="297"/>
      <point x="493" y="321" type="curve" smooth="yes"/>
      <point x="414" y="365"/>
      <point x="372" y="440"/>
      <point x="372" y="532" type="curve" smooth="yes"/>
      <point x="372" y="624"/>
      <point x="414" y="699"/>
      <point x="493" y="743" type="curve" smooth="yes"/>
      <point x="536" y="767"/>
      <point x="580" y="778"/>
      <point x="616" y="778" type="curve" smooth="yes"/>
      <point x="655" y="778"/>
      <point x="700" y="766"/>
      <point x="739" y="743" type="curve" smooth="yes"/>
      <point x="812" y="702"/>
      <point x="861" y="632"/>
      <point x="861" y="532" type="curve" smooth="yes"/>
      <point x="861" y="432"/>
      <point x="812" y="362"/>
      <point x="739" y="321" type="curve" smooth="yes"/>
      <point x="700" y="298"/>
      <point x="655" y="286"/>
    </contour>
    <contour>
      <point x="616" y="396" type="curve" smooth="yes"/>
      <point x="640" y="396"/>
      <point x="665" y="405"/>
      <point x="684" y="416" type="curve" smooth="yes"/>
      <point x="729" y="443"/>
      <point x="751" y="481"/>
      <point x="751" y="532" type="curve" smooth="yes"/>
      <point x="751" y="583"/>
      <point x="729" y="621"/>
      <point x="684" y="648" type="curve" smooth="yes"/>
      <point x="665" y="659"/>
      <point x="640" y="668"/>
      <point x="616" y="668" type="curve" smooth="yes"/>
      <point x="595" y="668"/>
      <point x="572" y="661"/>
      <point x="549" y="648" type="curve" smooth="yes"/>
      <point x="504" y="622"/>
      <point x="482" y="583"/>
      <point x="482" y="532" type="curve" smooth="yes"/>
      <point x="482" y="481"/>
      <point x="504" y="442"/>
      <point x="549" y="416" type="curve" smooth="yes"/>
      <point x="572" y="403"/>
      <point x="595" y="396"/>
    </contour>
  </outline>
</glyph>
<glyph name="openbullet" format="1">
  <advance width="1233"/>
  <unicode hex="25E6"/>
  <outline>
    <contour>
      <point x="614" y="465" type="curve" smooth="yes" name="dv01"/>
      <point x="449" y="465" name="sh01"/>
      <point x="319" y="596" name="dv04"/>
      <point x="319" y="761" type="curve" smooth="yes" name="sh02"/>
      <point x="319" y="926"/>
      <point x="450" y="1057" name="dv02"/>
      <point x="615" y="1057" type="curve" smooth="yes" name="ah02"/>
      <point x="782" y="1057" name="dv03"/>
      <point x="913" y="926" name="sh03"/>
      <point x="913" y="762" type="curve" smooth="yes"/>
      <point x="913" y="597" name="ah01"/>
      <point x="782" y="465"/>
    </contour>
    <contour>
      <point x="614" y="524" type="curve" smooth="yes"/>
      <point x="746" y="524"/>
      <point x="854" y="630"/>
      <point x="854" y="762" type="curve" smooth="yes"/>
      <point x="854" y="893"/>
      <point x="748" y="998"/>
      <point x="615" y="998" type="curve" smooth="yes"/>
      <point x="483" y="998"/>
      <point x="378" y="893"/>
      <point x="378" y="761" type="curve" smooth="yes"/>
      <point x="378" y="629"/>
      <point x="482" y="524"/>
    </contour>
  </outline>
</glyph>
<glyph name="uni25F4" format="1">
  <advance width="1233"/>
  <unicode hex="25F4"/>
  <outline>
    <contour>
      <point x="617" y="-84" type="curve" smooth="yes" name="dv01"/>
      <point x="524" y="-84"/>
      <point x="413" y="-55"/>
      <point x="310" y="2" type="curve" smooth="yes"/>
      <point x="118" y="109" name="av01"/>
      <point x="6" y="301"/>
      <point x="6" y="532" type="curve" smooth="yes" name="sh01"/>
      <point x="6" y="765"/>
      <point x="118" y="953"/>
      <point x="310" y="1062" type="curve" name="dv02"/>
      <point x="413" y="1119"/>
      <point x="524" y="1148" name="ah02"/>
      <point x="617" y="1148" type="curve" smooth="yes"/>
      <point x="710" y="1148"/>
      <point x="818" y="1120" name="sh03"/>
      <point x="922" y="1061" type="curve" smooth="yes"/>
      <point x="1117" y="952"/>
      <point x="1227" y="772" name="sh02"/>
      <point x="1227" y="532" type="curve" smooth="yes"/>
      <point x="1227" y="292"/>
      <point x="1117" y="112"/>
      <point x="922" y="3" type="curve" smooth="yes" name="ah01"/>
      <point x="818" y="-56" name="sh04"/>
      <point x="710" y="-84"/>
    </contour>
    <contour>
      <point x="619" y="39" type="curve" smooth="yes"/>
      <point x="695" y="39"/>
      <point x="779" y="63"/>
      <point x="860" y="110" type="curve" smooth="yes"/>
      <point x="1023" y="204"/>
      <point x="1105" y="345"/>
      <point x="1105" y="532" type="curve" smooth="yes"/>
      <point x="1105" y="719"/>
      <point x="1023" y="860"/>
      <point x="860" y="954" type="curve" smooth="yes"/>
      <point x="796" y="991"/>
      <point x="737" y="1010"/>
      <point x="673" y="1021" type="curve"/>
      <point x="673" y="474" type="line"/>
      <point x="131" y="474" type="line"/>
      <point x="163" y="156"/>
      <point x="450" y="39"/>
    </contour>
    <contour>
      <point x="559" y="588" type="line"/>
      <point x="559" y="1021" type="line"/>
      <point x="496" y="1012"/>
      <point x="433" y="989"/>
      <point x="372" y="954" type="curve" smooth="yes"/>
      <point x="226" y="870"/>
      <point x="146" y="748"/>
      <point x="131" y="588" type="curve"/>
    </contour>
  </outline>
</glyph>
<glyph name="uni25FA" format="1">
  <advance width="1233"/>
  <unicode hex="25FA"/>
  <outline>
    <contour>
      <point x="6" y="1142" type="line" name="dh01"/>
      <point x="1227" y="-78" type="line" name="dv01"/>
      <point x="6" y="-78" type="line"/>
    </contour>
    <contour>
      <point x="942" y="36" type="line" name="dv02"/>
      <point x="120" y="858" type="line" name="dh02"/>
      <point x="120" y="36" type="line"/>
    </contour>
  </outline>
</glyph>
<glyph name="uni2775" format="1">
  <advance width="1233"/>
  <unicode hex="2775"/>
  <outline>
    <contour>
      <point x="250" y="-204" type="line" name="dh01"/>
      <point x="303" y="-204" type="line" smooth="yes" name="dv02"/>
      <point x="450" y="-204" name="sh01"/>
      <point x="480" y="-167" name="sh03"/>
      <point x="480" y="4" type="curve" smooth="yes" name="ih01"/>
      <point x="480" y="230" type="line" smooth="yes" name="sh02"/>
      <point x="480" y="419" name="sh04"/>
      <point x="520" y="494"/>
      <point x="636" y="526" type="curve" name="sh05"/>
      <point x="523" y="556" name="dv03"/>
      <point x="480" y="629"/>
      <point x="480" y="821" type="curve" smooth="yes" name="sh06"/>
      <point x="480" y="1046" type="line" smooth="yes"/>
      <point x="480" y="1218"/>
      <point x="450" y="1255" name="dv04"/>
      <point x="303" y="1255" type="curve" smooth="yes" name="sh07"/>
      <point x="250" y="1255" type="line" name="hr02"/>
      <point x="250" y="1385" type="line"/>
      <point x="415" y="1385" type="line" smooth="yes" name="dh02"/>
      <point x="674" y="1385"/>
      <point x="741" y="1318" name="dv01"/>
      <point x="741" y="1050" type="curve" smooth="yes"/>
      <point x="741" y="831" type="line" smooth="yes"/>
      <point x="741" y="651"/>
      <point x="787" y="591"/>
      <point x="936" y="591" type="curve" smooth="yes"/>
      <point x="983" y="591" type="line" name="hr03"/>
      <point x="983" y="461" type="line"/>
      <point x="936" y="461" type="line" smooth="yes"/>
      <point x="788" y="461"/>
      <point x="741" y="402"/>
      <point x="741" y="218" type="curve" smooth="yes"/>
      <point x="741" y="1" type="line" smooth="yes"/>
      <point x="741" y="-267"/>
      <point x="674" y="-335"/>
      <point x="415" y="-335" type="curve" smooth="yes"/>
      <point x="250" y="-335" type="line" name="hr04"/>
    </contour>
  </outline>
</glyph>
<glyph name="nine.subs" format="1">
  <advance width="1233"/>
  <outline>
    <contour>
      <point x="551" y="-414" type="curve" smooth="yes" name="dv01"/>
      <point x="491" y="-414"/>
      <point x="428" y="-402" name="ih01"/>
      <point x="371" y="-381" type="curve" name="dv02"/>
      <point x="371" y="-277" type="line" name="ih02"/>
      <point x="424" y="-304" name="dv05"/>
      <point x="482" y="-319" name="sh01"/>
      <point x="546" y="-319" type="curve" smooth="yes" name="dv04"/>
      <point x="707" y="-319" name="sh03"/>
      <point x="788" y="-213"/>
      <point x="788" y="0" type="curve" name="dv06"/>
      <point x="749" y="-76" name="ah02"/>
      <point x="677" y="-116" name="dv03"/>
      <point x="585" y="-116" type="curve" smooth="yes" name="sh02"/>
      <point x="402" y="-116"/>
      <point x="304" y="-14" name="ah01"/>
      <point x="304" y="170" type="curve" smooth="yes"/>
      <point x="304" y="351"/>
      <point x="408" y="453"/>
      <point x="592" y="453" type="curve" smooth="yes"/>
      <point x="808" y="453"/>
      <point x="904" y="319"/>
      <point x="904" y="19" type="curve" smooth="yes"/>
      <point x="904" y="-264"/>
      <point x="782" y="-414"/>
    </contour>
    <contour>
      <point x="595" y="-28" type="curve" smooth="yes"/>
      <point x="703" y="-28"/>
      <point x="766" y="44"/>
      <point x="766" y="169" type="curve" smooth="yes"/>
      <point x="766" y="293"/>
      <point x="703" y="365"/>
      <point x="595" y="365" type="curve" smooth="yes"/>
      <point x="483" y="365"/>
      <point x="427" y="300"/>
      <point x="427" y="169" type="curve" smooth="yes"/>
      <point x="427" y="38"/>
      <point x="483" y="-28"/>
    </contour>
  </outline>
</glyph>
